<svg width="39" height="52" viewBox="0 0 39 52" fill="none" xmlns="http://www.w3.org/2000/svg">
<path d="M34.4398 0H4.05022C2.9766 0.00152725 1.94716 0.428774 1.18778 1.18779C0.428362 1.94721 0.00107518 2.9766 0 4.05061V47.9494C0.00114546 49.0234 0.428392 50.0528 1.18778 50.8122C1.94721 51.5713 2.9766 51.9985 4.05022 52H34.4398C35.5134 51.9985 36.5429 51.5712 37.3022 50.8122C38.0617 50.0528 38.4889 49.0234 38.49 47.9494V4.05061C38.4889 2.9766 38.0616 1.94716 37.3022 1.18779C36.5428 0.428744 35.5134 0.00146616 34.4398 0ZM37.1438 47.9493C37.1427 48.6656 36.8578 49.3521 36.3515 49.8583C35.8452 50.365 35.1588 50.6498 34.4425 50.6506H4.04997C3.33408 50.6498 2.64715 50.365 2.14093 49.8583C1.63465 49.352 1.34981 48.6656 1.34867 47.9493V4.05051C1.34982 3.33423 1.63503 2.64808 2.14132 2.14186C2.6476 1.63596 3.33409 1.35113 4.04996 1.35036H34.4395C35.1558 1.35036 35.8431 1.63482 36.3498 2.14109C36.8568 2.64738 37.1424 3.33386 37.1436 4.05052L37.1438 47.9493Z" fill="#54595F"/>
<path d="M32.4149 27.0137H6.07782C5.71243 27.024 5.42188 27.3233 5.42188 27.6887C5.42188 28.0541 5.71244 28.3534 6.07782 28.3638H32.4149C32.7803 28.3534 33.0709 28.0541 33.0709 27.6887C33.0709 27.3233 32.7803 27.024 32.4149 27.0137Z" fill="#54595F"/>
<path d="M32.4149 32.416H6.07782C5.71243 32.4263 5.42188 32.7257 5.42188 33.0914C5.42188 33.4568 5.71244 33.7562 6.07782 33.7665H32.4149C32.7803 33.7562 33.0709 33.4568 33.0709 33.0914C33.0709 32.7257 32.7803 32.4263 32.4149 32.416Z" fill="#54595F"/>
<path d="M32.4149 37.8184H6.07782C5.71243 37.8287 5.42188 38.128 5.42188 38.4934C5.42188 38.8592 5.71244 39.1581 6.07782 39.1688H32.4149C32.7803 39.1581 33.0709 38.8592 33.0709 38.4934C33.0709 38.128 32.7803 37.8287 32.4149 37.8184Z" fill="#54595F"/>
<path d="M32.4149 43.2207H6.07782C5.71243 43.231 5.42188 43.5304 5.42188 43.8957C5.42188 44.2615 5.71244 44.5605 6.07782 44.5712H32.4149C32.7803 44.5605 33.0709 44.2615 33.0709 43.8957C33.0709 43.5303 32.7803 43.231 32.4149 43.2207Z" fill="#54595F"/>
<path d="M12.2814 19.5049C13.935 21.6835 16.513 22.963 19.2483 22.963C21.9836 22.963 24.5616 21.6835 26.2156 19.5049C26.245 19.4724 26.271 19.4369 26.2939 19.3995C27.5947 17.6497 28.1976 15.4783 27.9857 13.3081C27.7734 11.1379 26.7613 9.12416 25.1462 7.65917C23.5311 6.19419 21.4285 5.38281 19.2479 5.38281C17.0673 5.38281 14.9651 6.19417 13.35 7.65917C11.7346 9.12416 10.7228 11.1379 10.5105 13.3081C10.2982 15.4783 10.9014 17.6497 12.2023 19.3995C12.2252 19.4369 12.2516 19.4724 12.2814 19.5049ZM19.2476 21.6121C17.1233 21.6114 15.1015 20.6981 13.6968 19.1048C13.7606 19.0586 13.8293 19.0197 13.9015 18.988L16.8078 17.8983C17.3679 17.6853 17.8055 17.2359 18.004 16.6705C18.797 17.0179 19.6997 17.0179 20.4927 16.6705C20.6912 17.2363 21.1284 17.6857 21.6881 17.8995L24.594 18.9889C24.6662 19.0205 24.7349 19.0595 24.799 19.1053C23.3936 20.6986 21.3719 21.6116 19.2475 21.6122L19.2476 21.6121ZM19.2476 15.5791C17.8567 15.5791 16.6368 13.9369 16.6368 12.0671C16.6265 11.368 16.8972 10.6941 17.3878 10.1962C17.8788 9.69796 18.5489 9.41771 19.248 9.41771C19.947 9.41771 20.6172 9.69797 21.1077 10.1962C21.5984 10.6941 21.8691 11.368 21.8592 12.0671C21.8592 13.9373 20.639 15.5791 19.2476 15.5791ZM19.2476 6.75428C21.0104 6.75046 22.7171 7.37473 24.0611 8.51562C25.4051 9.6561 26.2986 11.2387 26.5815 12.9786C26.864 14.7186 26.5173 16.5024 25.6036 18.0098C25.4379 17.8926 25.2585 17.796 25.0695 17.7227L22.1635 16.633C21.9005 16.5334 21.7264 16.2821 21.7256 16.0011V15.8278C22.6927 14.8167 23.2258 13.4671 23.2101 12.0677C23.2224 11.0089 22.8108 9.98944 22.0662 9.23612C21.3221 8.48319 20.3072 8.05938 19.2485 8.05938C18.1897 8.05938 17.1748 8.48319 16.4307 9.23612C15.6866 9.98944 15.2746 11.0089 15.2868 12.0677C15.2712 13.4678 15.8049 14.8183 16.7732 15.8292V16.0011C16.7721 16.2821 16.5979 16.5333 16.3353 16.633L13.4289 17.7226H13.4286C13.2392 17.7963 13.0597 17.8929 12.894 18.0105C11.9807 16.5031 11.634 14.7196 11.9166 12.9797C12.1991 11.2402 13.0925 9.65798 14.4357 8.51711C15.7793 7.37624 17.4852 6.75125 19.2476 6.75428Z" fill="#54595F"/>
</svg>
