<svg width="55" height="54" viewBox="0 0 55 54" fill="none" xmlns="http://www.w3.org/2000/svg">
<path d="M52.8761 31.3047C52.3706 31.4636 51.7525 31.6813 51.0993 31.7887C50.8207 31.8351 50.537 31.8609 50.2532 31.8589C50.2624 31.8279 50.2717 31.797 50.2811 31.7659C50.4647 31.1416 50.6226 30.4915 50.7351 29.9591C50.8485 29.4277 50.9198 29.0159 50.9486 28.8674C51.0354 28.4329 51.0941 28.1193 51.1932 27.8984C51.2932 27.6765 51.4347 27.5465 51.673 27.4743C52.6305 27.2411 53.5076 26.6158 54.1216 25.6737C54.7367 24.7378 55.0813 23.4902 54.9844 22.153C54.9214 21.3131 54.7387 20.9478 54.4942 20.8777C54.2476 20.8075 53.9318 21.0294 53.5418 21.3452C53.1508 21.662 52.6822 22.0695 52.1447 22.3945C51.9146 22.5348 51.6709 22.6597 51.4172 22.7589C51.3624 22.1809 51.284 21.5979 51.2056 21.1212C51.1231 20.6126 51.0456 20.2246 51.0209 20.0832C50.8744 19.2556 50.8124 18.8934 51.1912 18.6045C51.9619 18.0742 52.5305 17.2258 52.7607 16.1869C52.9939 15.1518 52.8824 13.9312 52.3552 12.7807C52.0218 12.0584 51.7391 11.7973 51.4986 11.8169C51.2562 11.8355 51.0478 12.1368 50.8042 12.5453C50.5607 12.956 50.2789 13.473 49.9085 13.9404C49.7498 14.1417 49.5742 14.3325 49.3824 14.5048C49.1709 14.0704 48.95 13.6484 48.7549 13.2965C48.5186 12.8693 48.3236 12.5474 48.2576 12.4287C47.8624 11.7362 47.6932 11.4319 47.9408 11.0542C48.464 10.336 48.7064 9.40009 48.5929 8.40224C48.4825 7.40654 48.012 6.35412 47.1938 5.48829C46.6778 4.94559 46.3466 4.79799 46.1371 4.8878C45.9246 4.97965 45.8266 5.3118 45.7305 5.75352C45.6346 6.19524 45.5365 6.74525 45.3467 7.27763C45.2663 7.50365 45.1682 7.72441 45.0506 7.93495C44.8163 7.69959 44.5872 7.4768 44.382 7.28483C44.0249 6.95053 43.7421 6.70281 43.642 6.61108C43.0538 6.07342 42.799 5.83613 42.9186 5.40064C43.1973 4.55661 43.1415 3.59067 42.7278 2.6765C42.3183 1.76233 41.5463 0.90381 40.501 0.331032C39.8427 -0.0281902 39.4815 -0.0683664 39.3092 0.0833146C39.1349 0.234888 39.144 0.581756 39.1885 1.03164C39.2308 1.4608 39.302 1.98502 39.2928 2.52375C38.9378 2.10888 38.4528 1.78801 37.9079 1.53621C37.2702 1.23897 36.3158 1.044 35.4913 1.10791C34.6648 1.16786 33.9848 1.47734 33.8258 2.04894C33.6649 2.62376 34.0508 3.22425 34.5739 3.75363C35.1022 4.27989 35.773 4.7474 36.3128 4.99812C36.7946 5.21984 37.2734 5.38603 37.778 5.41804C37.7553 5.43555 37.7326 5.45306 37.7099 5.47067C37.2704 5.80401 36.8267 6.08255 36.4871 6.33844C36.1477 6.59228 35.9113 6.8213 35.8731 7.04012C35.835 7.25991 35.9949 7.46412 36.4468 7.71184C37.164 8.105 37.9524 8.26077 38.7706 8.22371C39.5858 8.18342 40.4299 7.95236 41.1831 7.49925C41.5691 7.28988 41.8446 7.4725 42.3843 7.97083C42.4762 8.05548 42.7228 8.30008 43.0282 8.63127C43.2027 8.82012 43.3945 9.03786 43.5907 9.26807C43.3832 9.36604 43.1707 9.45069 42.9591 9.52492C42.4391 9.70657 41.9313 9.83559 41.53 9.97373C41.1276 10.1121 40.8335 10.2554 40.7292 10.4526C40.626 10.6507 40.7157 10.8952 41.0708 11.2688C41.6342 11.8653 42.3368 12.2553 43.1263 12.471C43.9147 12.6836 44.7896 12.7207 45.6451 12.5205C46.0775 12.4391 46.2828 12.697 46.6429 13.3368C46.7048 13.4462 46.8648 13.7547 47.0536 14.1623C47.2094 14.4997 47.3838 14.9073 47.5458 15.3221C47.2857 15.3561 47.0248 15.3685 46.7688 15.3715C46.1899 15.3788 45.641 15.3375 45.1941 15.3416C44.7484 15.3457 44.4057 15.3922 44.2365 15.5522C44.0661 15.7143 44.0713 15.9846 44.2953 16.4707C44.6492 17.2424 45.2106 17.8595 45.9174 18.3394C46.6253 18.8151 47.4796 19.1545 48.3981 19.2546C48.8552 19.3259 48.9687 19.653 49.0996 20.4124C49.1213 20.5414 49.1709 20.9026 49.2122 21.3731C49.2514 21.8148 49.2813 22.3513 49.2885 22.8807C49.0254 22.8177 48.7694 22.7362 48.5228 22.6475C47.9491 22.4411 47.4218 22.1996 46.9802 22.0427C46.5395 21.8838 46.1845 21.8054 45.9586 21.9013C45.7315 21.9972 45.6367 22.2625 45.6778 22.8187C45.7418 23.701 46.0647 24.5151 46.5839 25.2457C47.103 25.9732 47.817 26.6233 48.6827 27.0659C48.8953 27.1866 48.9974 27.3363 49.0275 27.5571C49.0584 27.778 49.0181 28.0668 48.9366 28.4642C48.9097 28.5993 48.8221 28.9718 48.6827 29.4475C48.5455 29.9232 48.3556 30.5012 48.1441 31.0512C48.1328 31.0791 48.1224 31.1059 48.1121 31.1327C47.882 30.9696 47.6675 30.7911 47.4621 30.6105C46.9833 30.1844 46.5623 29.7448 46.1919 29.4207C45.8215 29.0956 45.5057 28.8821 45.2477 28.8863C44.9865 28.8903 44.7926 29.1101 44.6182 29.6591C44.3376 30.5299 44.3365 31.432 44.5502 32.344C44.7658 33.2521 45.1971 34.1694 45.8585 34.9505C46.1711 35.356 46.0133 35.7048 45.5356 36.4075C45.454 36.5271 45.2157 36.8512 44.8865 37.2547C44.5585 37.6571 44.1353 38.137 43.7029 38.5806C43.6338 38.6528 43.5637 38.7231 43.4944 38.7923C43.3448 38.5405 43.2128 38.2804 43.093 38.0225C42.8113 37.4095 42.5915 36.81 42.3697 36.3415C42.1499 35.8721 41.9331 35.5347 41.6835 35.4284C41.4317 35.3231 41.153 35.449 40.7569 35.9C40.1233 36.612 39.7446 37.4727 39.564 38.4373C39.3875 39.3969 39.4093 40.4629 39.7054 41.4969C39.8313 42.0211 39.5289 42.2863 38.7663 42.7507C38.6363 42.8291 38.2679 43.0355 37.7778 43.2758C37.2876 43.5174 36.6747 43.7876 36.068 44.0177C35.4612 44.2509 34.6337 44.6069 34.193 44.7617C28.4528 46.7791 21.5432 47.6499 17.2651 50.7942C16.5984 51.2842 17.9234 53.1706 18.5084 53.024C19.0936 52.8785 23.2985 50.3556 33.8247 47.4766C34.2662 47.3209 36.4032 46.6243 37.0565 46.3117C37.7118 46.0001 38.3669 45.6451 38.889 45.3406C39.4112 45.0352 39.8023 44.7825 39.9467 44.6958C40.3667 44.4379 40.6671 44.2489 40.9239 44.1634C41.1798 44.0768 41.3924 44.0922 41.6317 44.2315C42.0899 44.5308 42.611 44.7392 43.1744 44.8434C43.7379 44.9466 44.3446 44.9446 44.9627 44.829C45.5797 44.7123 46.2101 44.4822 46.8108 44.1355C47.4124 43.7898 47.9861 43.3285 48.4865 42.7641C49.116 42.051 49.2655 41.6157 49.1314 41.3679C48.9963 41.1172 48.5733 41.0429 48.0181 40.982C47.4619 40.9232 46.7727 40.8726 46.0978 40.7003C45.813 40.6281 45.5314 40.5342 45.2621 40.4136C45.3333 40.33 45.4034 40.2454 45.4736 40.1596C45.911 39.6303 46.3342 39.066 46.6634 38.5974C46.9925 38.128 47.2309 37.7564 47.3206 37.6244C47.8417 36.8483 48.0687 36.5089 48.5951 36.5657C49.6197 36.7288 50.728 36.4738 51.7093 35.798C52.1984 35.4606 52.6546 35.02 53.0415 34.4917C53.4295 33.9644 53.7484 33.3473 53.9671 32.6694C54.2395 31.8149 54.2023 31.3816 53.9918 31.2174C53.778 31.0519 53.3818 31.1458 52.8761 31.3047Z" fill="#707070"/>
<path d="M21.1319 47.4623C22.4559 46.9504 23.854 46.5161 25.2708 46.1125C23.7488 45.6977 22.2412 45.2654 20.8069 44.7618C20.3663 44.607 19.5388 44.251 18.9321 44.0178C18.3254 43.7877 17.7124 43.5174 17.2223 43.2758C16.7322 43.0354 16.3638 42.829 16.2337 42.7507C15.4711 42.2863 15.1688 42.0211 15.2947 41.497C15.5909 40.4629 15.6125 39.397 15.4361 38.4374C15.2555 37.4727 14.8769 36.6121 14.2433 35.9001C13.8471 35.4491 13.5685 35.3232 13.3168 35.4285C13.0669 35.5347 12.8503 35.8721 12.6304 36.3416C12.4086 36.81 12.1879 37.4096 11.9072 38.0225C11.7875 38.2804 11.6554 38.5405 11.5057 38.7923C11.4365 38.7231 11.3665 38.6529 11.2972 38.5807C10.8648 38.137 10.4419 37.6572 10.1136 37.2548C9.78449 36.8513 9.54612 36.5273 9.46459 36.4075C8.98677 35.7049 8.82789 35.3561 9.14157 34.9506C9.80308 34.1695 10.2344 33.2521 10.45 32.344C10.6635 31.432 10.6625 30.53 10.3818 29.6591C10.2074 29.1102 10.0134 28.8904 9.75237 28.8863C9.49445 28.8822 9.17863 29.0958 8.80823 29.4207C8.43784 29.7448 8.01674 30.1843 7.53796 30.6106C7.33267 30.7911 7.11804 30.9697 6.88794 31.1327C6.87763 31.1059 6.86721 31.079 6.85701 31.0512C6.64442 30.5012 6.4546 29.9234 6.31731 29.4476C6.17809 28.9719 6.09033 28.5994 6.06358 28.4643C5.98215 28.067 5.94187 27.778 5.97281 27.5572C6.00267 27.3363 6.10494 27.1868 6.31742 27.0659C7.18325 26.6233 7.89729 25.9732 8.41732 25.2458C8.93532 24.5152 9.2593 23.701 9.32225 22.8188C9.36458 22.2625 9.26854 21.9973 9.04166 21.9014C8.81565 21.8054 8.46072 21.8839 8.02007 22.0427C7.57835 22.1997 7.05112 22.4411 6.47845 22.6475C6.23073 22.7363 5.97485 22.8177 5.71177 22.8807C5.72004 22.3514 5.74894 21.8148 5.78815 21.3732C5.8294 20.9027 5.87892 20.5415 5.90051 20.4125C6.03157 19.6531 6.14512 19.3259 6.6022 19.2547C7.52056 19.1546 8.37489 18.8151 9.08281 18.3394C9.78965 17.8596 10.351 17.2425 10.705 16.4707C10.9289 15.9846 10.934 15.7143 10.7638 15.5522C10.5946 15.3924 10.252 15.3459 9.80619 15.3417C9.35931 15.3376 8.81038 15.3789 8.23159 15.3716C7.97571 15.3686 7.71456 15.3561 7.45449 15.3221C7.61649 14.9073 7.79094 14.4997 7.9467 14.1623C8.13555 13.7547 8.29551 13.4462 8.35749 13.3369C8.71757 12.6971 8.92296 12.4391 9.35523 12.5206C10.2106 12.7208 11.0857 12.6836 11.8741 12.471C12.6635 12.2553 13.3662 11.8654 13.9296 11.2689C14.2846 10.8954 14.3743 10.6509 14.2712 10.4527C14.1669 10.2555 13.8729 10.1121 13.4705 9.97378C13.0691 9.83553 12.5614 9.70651 12.0412 9.52497C11.8297 9.45063 11.6172 9.36598 11.4098 9.26812C11.6057 9.03802 11.7978 8.82017 11.9732 8.63132C12.2777 8.30024 12.5243 8.05553 12.616 7.97088C13.1556 7.47255 13.4312 7.28993 13.8171 7.4993C14.5704 7.9524 15.4145 8.18347 16.2296 8.22375C17.0479 8.26081 17.8363 8.10505 18.5534 7.71188C19.0055 7.46417 19.1653 7.25996 19.1272 7.04017C19.089 6.82135 18.8526 6.59222 18.5131 6.33848C18.1737 6.0826 17.73 5.80406 17.2904 5.47072C17.2677 5.45311 17.245 5.4356 17.2223 5.41809C17.7269 5.38607 18.2057 5.22 18.6876 4.99817C19.2273 4.74745 19.898 4.27994 20.4263 3.75368C20.9495 3.2243 21.3353 2.6238 21.1755 2.04898C21.0155 1.47728 20.3355 1.1678 19.5089 1.10796C18.6845 1.04404 17.73 1.23902 17.0923 1.53626C16.5474 1.78805 16.0625 2.10893 15.7076 2.52379C15.6983 1.98518 15.7694 1.46095 15.8118 1.03169C15.8561 0.581804 15.8655 0.234936 15.691 0.0833622C15.5187 -0.0684262 15.1576 -0.0281427 14.4993 0.331079C13.4539 0.90375 12.6822 1.76227 12.2725 2.67655C11.8587 3.59072 11.803 4.55666 12.0815 5.40068C12.2012 5.83618 11.9464 6.07347 11.3581 6.61112C11.2581 6.70286 10.9753 6.95058 10.6184 7.28488C10.413 7.47684 10.184 7.69975 9.94971 7.935C9.83208 7.72445 9.734 7.5037 9.65365 7.27768C9.46373 6.74529 9.36576 6.19529 9.26972 5.75357C9.17379 5.31184 9.07572 4.97969 8.86313 4.88785C8.65365 4.79804 8.32247 4.94564 7.80652 5.48834C6.98828 6.35417 6.51766 7.4067 6.40733 8.40229C6.2939 9.40025 6.53635 10.3361 7.0595 11.0542C7.30722 11.4319 7.13792 11.7363 6.74271 12.4287C6.67664 12.5474 6.48156 12.8694 6.24534 13.2966C6.05026 13.6485 5.8294 14.0705 5.61788 14.5049C5.42603 14.3326 5.25061 14.1417 5.09173 13.9405C4.72123 13.4731 4.43956 12.9561 4.19604 12.5454C3.95262 12.1367 3.74411 11.8355 3.50166 11.8169C3.26124 11.7973 2.97851 12.0584 2.64625 12.7807C2.11794 13.9313 2.00654 15.152 2.23976 16.1869C2.46975 17.226 3.03834 18.0743 3.80921 18.6046C4.18787 18.8934 4.126 19.2556 3.9785 20.0832C3.95466 20.2246 3.87731 20.6126 3.79374 21.1213C3.71629 21.598 3.63787 22.1811 3.58319 22.7589C3.32935 22.6598 3.08582 22.5349 2.85475 22.3945C2.31818 22.0695 1.84971 21.6619 1.45869 21.3452C1.06864 21.0294 0.752813 20.8076 0.506278 20.8777C0.261783 20.9479 0.0790571 21.3132 0.0162147 22.1531C-0.0807881 23.4904 0.263824 24.7379 0.87882 25.6737C1.49274 26.6158 2.36985 27.2411 3.32752 27.4744C3.56579 27.5466 3.70715 27.6766 3.80738 27.8985C3.90642 28.1193 3.96518 28.433 4.05187 28.8674C4.08077 29.016 4.15189 29.4277 4.26554 29.9591C4.37801 30.4915 4.53581 31.1417 4.71951 31.766C4.72885 31.7969 4.73809 31.8279 4.74744 31.8589C4.46373 31.8609 4.17992 31.8351 3.90127 31.7888C3.24814 31.6813 2.63003 31.4636 2.12439 31.3047C1.61886 31.146 1.22257 31.052 1.00891 31.2171C0.79836 31.3812 0.761192 31.8146 1.03372 32.669C1.25244 33.3469 1.57137 33.9639 1.95928 34.4913C2.34622 35.0196 2.80233 35.4603 3.29154 35.7976C4.27284 36.4735 5.38102 36.7284 6.40562 36.5653C6.93199 36.5085 7.15886 36.848 7.68008 37.624C7.76989 37.7561 8.00815 38.1276 8.3374 38.597C8.66654 39.0656 9.08957 39.6299 9.52711 40.1593C9.59736 40.245 9.66751 40.3296 9.73862 40.4132C9.46942 40.5338 9.18765 40.6278 8.90287 40.6999C8.22804 40.8722 7.53871 40.9229 6.98258 40.9816C6.42753 41.0426 6.00439 41.1168 5.86915 41.3676C5.73508 41.6153 5.88472 42.0507 6.51411 42.7637C7.0146 43.3281 7.58834 43.7894 8.18991 44.1351C8.79051 44.4817 9.42097 44.7119 10.038 44.8286C10.6561 44.9441 11.2628 44.9462 11.8263 44.843C12.3897 44.7388 12.9108 44.5304 13.369 44.2311C13.6084 44.0919 13.8209 44.0764 14.0768 44.163C14.3337 44.2486 14.6341 44.4376 15.054 44.6954C15.1984 44.7821 15.5896 45.0349 16.1117 45.3403C16.6338 45.6447 17.2891 45.9997 17.9443 46.3114C18.577 46.6151 20.6098 47.2808 21.1319 47.4623Z" fill="#707070"/>
<path d="M33.8098 48.6953C32.1577 49.1514 30.6667 49.5992 29.3242 50.0285C33.9914 51.7094 36.0923 52.925 36.4927 53.025C37.0777 53.1715 38.4026 51.2853 37.7351 50.7952C36.5917 49.9542 35.2586 49.2773 33.8098 48.6953Z" fill="#707070"/>
<path d="M27.4993 10.5195L30.6327 20.1631H40.7726L32.5693 26.1232L35.7027 35.7668L27.4993 29.8068L19.296 35.7668L22.4294 26.1232L14.226 20.1631H24.3659L27.4993 10.5195Z" fill="#FEDB41"/>
</svg>
