<svg width="430" height="304" viewBox="0 0 430 304" fill="none" xmlns="http://www.w3.org/2000/svg">
<mask id="mask0_817_870" style="mask-type:luminance" maskUnits="userSpaceOnUse" x="160" y="177" width="124" height="124">
<path d="M160.559 177.016H283.131V300.091H160.559V177.016Z" fill="white"/>
</mask>
<g mask="url(#mask0_817_870)">
<path d="M221.999 177.766C220.869 177.766 219.75 177.788 218.62 177.867C209.891 178.355 201.68 180.657 194.287 184.426C190.229 186.453 186.463 188.954 182.986 191.841C178.83 195.292 175.113 199.279 172.008 203.709C169.339 207.449 167.124 211.515 165.385 215.825C162.446 222.962 160.857 230.768 160.857 238.945C160.857 272.735 188.19 300.128 221.999 300.128C230.161 300.128 237.971 298.517 245.085 295.596C249.392 293.869 253.447 291.639 257.182 288.97C261.62 285.861 265.626 282.163 269.073 278.003C271.938 274.534 274.457 270.738 276.484 266.679C280.738 258.352 283.137 248.932 283.137 238.945C283.137 205.147 255.763 177.766 221.999 177.766Z" fill="#FFBD00"/>
</g>
<mask id="mask1_817_870" style="mask-type:luminance" maskUnits="userSpaceOnUse" x="155" y="177" width="123" height="124">
<path d="M155.133 177H277.826V300.046H155.133V177Z" fill="white"/>
</mask>
<g mask="url(#mask1_817_870)">
<path d="M216.4 177C215.281 177 214.151 177.03 213.021 177.101C207.595 177.398 202.362 178.419 197.398 180.037C194.391 181.017 191.481 182.238 188.695 183.657C188.646 183.687 188.616 183.709 188.568 183.709C187.396 184.317 186.217 184.956 185.098 185.647C183.48 186.578 181.911 187.625 180.424 188.755C179.377 189.465 178.367 190.265 177.398 191.076C176.099 192.153 174.849 193.276 173.651 194.455C171.004 197.023 168.616 199.842 166.487 202.85C166.457 202.872 166.439 202.921 166.409 202.94C163.75 206.69 161.524 210.749 159.786 215.055C156.846 222.204 155.258 230.013 155.258 238.191C155.258 271.977 182.602 299.37 216.4 299.37C224.569 299.37 232.371 297.752 239.486 294.842C243.792 293.1 247.847 290.873 251.594 288.204C251.643 288.181 251.662 288.163 251.714 288.114C254.722 286.004 257.537 283.605 260.105 280.965C261.303 279.768 262.403 278.547 263.481 277.248C264.292 276.238 265.091 275.236 265.827 274.189C266.927 272.687 267.979 271.129 268.906 269.51C269.597 268.388 270.224 267.209 270.843 266.041C270.843 265.989 270.866 265.959 270.896 265.91C272.311 263.12 273.531 260.211 274.511 257.203C276.49 251.204 277.538 244.817 277.538 238.191C277.538 204.393 250.175 177 216.4 177Z" fill="#FFDE50"/>
</g>
<path d="M216.447 248.966L60.9036 145.782L31.1168 226.753L216.447 248.966Z" fill="url(#paint0_linear_817_870)" fill-opacity="0.49"/>
<path d="M218.388 247.127L228.864 60.7636L143.937 75.9603L218.388 247.127Z" fill="url(#paint1_linear_817_870)" fill-opacity="0.49"/>
<path d="M219.081 244.539L330.804 95.0106L251.626 60.7413L219.081 244.539Z" fill="url(#paint2_linear_817_870)"/>
<path d="M215.942 254.863L386.031 177.984L402.435 262.686L215.942 254.863Z" fill="url(#paint3_linear_817_870)" fill-opacity="0.49"/>
<path d="M217.424 253.221L141.401 82.7467L72.859 135.145L217.424 253.221Z" fill="url(#paint4_linear_817_870)" fill-opacity="0.49"/>
<path d="M214.778 245.277L389.238 178.908L340.755 107.543L214.778 245.277Z" fill="url(#paint5_linear_817_870)" fill-opacity="0.49"/>
<path d="M260.118 280.978C257.55 283.617 254.734 286.016 251.727 288.126L166.5 202.862C168.629 199.854 171.017 197.035 173.664 194.467L260.118 280.978Z" fill="#FFEA94"/>
<path d="M274.52 257.199C273.54 260.206 272.32 263.116 270.904 265.906C270.874 265.955 270.852 265.985 270.852 266.037L188.576 183.705C188.625 183.705 188.655 183.683 188.704 183.653C191.49 182.233 194.399 181.013 197.407 180.033L274.52 257.199Z" fill="#FFEA94"/>
<path d="M268.915 269.514C267.988 271.132 266.937 272.691 265.837 274.192L180.434 188.759C181.92 187.629 183.49 186.582 185.108 185.65L268.915 269.514Z" fill="#FFEA94"/>
<path d="M190.873 270.398C198.922 278.455 209.213 282.856 219.733 283.614C230.253 282.886 240.571 278.455 248.613 270.398L187.693 209.467C173.14 227.383 174.218 253.732 190.873 270.398Z" fill="#FAA300"/>
<path d="M184.23 270.389C193.962 280.154 207.016 284.566 219.736 283.605C209.216 282.846 198.925 278.446 190.875 270.389C174.221 253.723 173.143 227.374 187.695 209.457C188.705 208.26 189.753 207.081 190.875 205.962C198.895 197.901 209.216 193.475 219.736 192.746C206.997 191.785 193.962 196.193 184.2 205.962C166.396 223.743 166.419 252.604 184.23 270.389Z" fill="#F68E00"/>
<path d="M187.693 209.446L248.614 270.377C266.425 252.592 266.425 223.761 248.614 205.95C240.571 197.889 230.254 193.463 219.734 192.734C209.214 193.463 198.893 197.889 190.873 205.95C189.751 207.069 188.703 208.248 187.693 209.446Z" fill="#FFBD00"/>
<path d="M235.309 247.464C234.31 251.834 232.662 255.022 230.364 257.049C228.055 259.091 225.318 260.101 222.123 260.101C217.787 260.101 214.269 258.502 211.562 255.311C208.855 252.112 207.507 246.754 207.507 239.215C207.507 232.131 208.874 226.991 211.622 223.822C214.37 220.653 217.956 219.072 222.36 219.072C225.559 219.072 228.266 219.962 230.503 221.753C232.73 223.54 234.201 225.981 234.907 229.059L246.798 226.221C245.45 221.453 243.422 217.792 240.712 215.254C236.169 210.948 230.255 208.785 222.972 208.785C214.64 208.785 207.905 211.537 202.791 217.015C197.678 222.5 195.117 230.201 195.117 240.116C195.117 249.484 197.666 256.873 202.75 262.279C207.845 267.678 214.34 270.377 222.243 270.377C228.626 270.377 233.901 268.808 238.057 265.647C242.213 262.489 245.179 257.661 246.967 251.162L235.309 247.464Z" fill="#F68E00"/>
<path d="M233.475 246.446C232.465 250.805 230.816 254.004 228.519 256.035C226.213 258.063 223.465 259.084 220.278 259.084C215.941 259.084 212.427 257.484 209.72 254.286C207.009 251.087 205.661 245.725 205.661 238.198C205.661 231.102 207.032 225.973 209.776 222.804C212.525 219.635 216.103 218.047 220.518 218.047C223.713 218.047 226.42 218.937 228.658 220.724C230.895 222.515 232.367 224.952 233.065 228.042L244.963 225.192C243.604 220.424 241.577 216.775 238.87 214.229C234.323 209.919 228.41 207.768 221.126 207.768C212.795 207.768 206.063 210.508 200.946 215.997C195.832 221.475 193.275 229.183 193.275 239.087C193.275 248.466 195.821 255.855 200.908 261.25C206.003 266.66 212.495 269.36 220.398 269.36C226.78 269.36 232.055 267.779 236.212 264.622C240.368 261.472 243.334 256.643 245.125 250.144L233.475 246.446Z" fill="#FFEA94"/>
<defs>
<linearGradient id="paint0_linear_817_870" x1="216.447" y1="248.966" x2="23.5709" y2="178.214" gradientUnits="userSpaceOnUse">
<stop stop-color="#F7D000"/>
<stop offset="1" stop-color="#D9D9D9" stop-opacity="0"/>
<stop offset="1" stop-color="#E3D68E" stop-opacity="0.347717"/>
</linearGradient>
<linearGradient id="paint1_linear_817_870" x1="218.388" y1="247.127" x2="182.015" y2="44.9279" gradientUnits="userSpaceOnUse">
<stop stop-color="#F7D000"/>
<stop offset="1" stop-color="#D9D9D9" stop-opacity="0"/>
<stop offset="1" stop-color="#E3D68E" stop-opacity="0.347717"/>
</linearGradient>
<linearGradient id="paint2_linear_817_870" x1="219.081" y1="244.539" x2="300.511" y2="55.9223" gradientUnits="userSpaceOnUse">
<stop stop-color="#F7D000" stop-opacity="0.49"/>
<stop offset="1" stop-color="#D9D9D9" stop-opacity="0"/>
<stop offset="1" stop-color="#E3D68E" stop-opacity="0.347717"/>
</linearGradient>
<linearGradient id="paint3_linear_817_870" x1="215.942" y1="254.863" x2="417.674" y2="215.988" gradientUnits="userSpaceOnUse">
<stop stop-color="#F7D000"/>
<stop offset="1" stop-color="#D9D9D9" stop-opacity="0"/>
<stop offset="1" stop-color="#E3D68E" stop-opacity="0.347717"/>
</linearGradient>
<linearGradient id="paint4_linear_817_870" x1="217.424" y1="253.221" x2="92.501" y2="90.1208" gradientUnits="userSpaceOnUse">
<stop stop-color="#F7D000"/>
<stop offset="1" stop-color="#D9D9D9" stop-opacity="0"/>
<stop offset="1" stop-color="#E3D68E" stop-opacity="0.347717"/>
</linearGradient>
<linearGradient id="paint5_linear_817_870" x1="214.778" y1="245.277" x2="384.61" y2="129.673" gradientUnits="userSpaceOnUse">
<stop stop-color="#F7D000"/>
<stop offset="1" stop-color="#D9D9D9" stop-opacity="0"/>
<stop offset="1" stop-color="#E3D68E" stop-opacity="0.347717"/>
</linearGradient>
</defs>
</svg>
