<svg width="39" height="39" viewBox="0 0 39 39" fill="none" xmlns="http://www.w3.org/2000/svg">
<path d="M19.5 0C8.7555 0 0 8.7555 0 19.5C0 30.2445 8.7555 39 19.5 39C30.2445 39 39 30.2445 39 19.5C39 8.7555 30.2445 0 19.5 0ZM28.821 15.015L17.7645 26.0715C17.4915 26.3445 17.121 26.5005 16.731 26.5005C16.341 26.5005 15.9705 26.3445 15.6975 26.0715L10.179 20.553C9.6135 19.9875 9.6135 19.0515 10.179 18.486C10.7445 17.9205 11.6805 17.9205 12.246 18.486L16.731 22.971L26.754 12.948C27.3195 12.3825 28.2555 12.3825 28.821 12.948C29.3865 13.5135 29.3865 14.43 28.821 15.015Z" fill="#54595F"/>
</svg>
