<svg width="48" height="48" viewBox="0 0 48 48" fill="none" xmlns="http://www.w3.org/2000/svg">
<path d="M16.11 35.3174C15.896 35.3174 15.6831 35.2492 15.5054 35.1139C12.0069 32.4591 10 28.4075 10 23.998C10 16.2782 16.2802 9.99805 24 9.99805C31.7198 9.99805 38 16.2782 38 23.998C38 28.4076 35.993 32.4599 32.4942 35.1148C32.1681 35.3629 31.7238 35.3858 31.3742 35.175C31.0234 34.9636 30.837 34.5609 30.903 34.1569C30.9676 33.7618 31.0002 33.3723 31.0002 32.9983C31.0002 29.1386 27.8602 25.9985 24.0004 25.9985C20.1407 25.9985 17.0006 29.1385 17.0006 32.9983C17.0006 33.3712 17.0333 33.7614 17.0978 34.1579C17.1631 34.5616 16.9763 34.9646 16.6256 35.1749C16.466 35.2703 16.2879 35.3178 16.1101 35.3178L16.11 35.3174ZM24 11.9974C17.3832 11.9974 12.0001 17.3806 12.0001 23.9972C12.0001 27.0103 13.093 29.8283 15.0553 31.9992C15.5529 27.504 19.3746 23.9972 24 23.9972C28.625 23.9972 32.4466 27.5044 32.9446 31.9992C34.907 29.8283 35.9998 27.0103 35.9998 23.9972C35.9998 17.3805 30.6166 11.9974 24 11.9974Z" fill="#54595F"/>
<path d="M23.9998 37.9977C20.9011 37.9977 17.9626 36.9995 15.5009 35.1111C15.2989 34.9559 15.1636 34.7292 15.1226 34.4778C15.0417 33.9758 15 33.4778 15 32.9979C15 28.0355 19.0374 23.998 23.9998 23.998C28.9623 23.998 32.9997 28.0354 32.9997 32.9979C32.9997 33.4792 32.9583 33.978 32.876 34.4789C32.835 34.7302 32.6997 34.9566 32.498 35.1111C30.0366 36.9994 27.0982 37.9977 23.9998 37.9977ZM17.0435 33.7647C19.0842 35.2272 21.4803 35.9976 24.0002 35.9976C26.5193 35.9976 28.9158 35.2272 30.9568 33.7647C30.9854 33.5039 31.0003 33.2471 31.0003 32.9976C31.0003 29.1379 27.8603 25.9978 24.0005 25.9978C20.1408 25.9978 17.0007 29.1378 17.0007 32.9976C17 33.2464 17.0145 33.5039 17.0435 33.7647Z" fill="#54595F"/>
<path d="M24.0001 25.9983C21.2434 25.9983 19 23.7553 19 20.9982C19 18.2415 21.243 15.998 24.0001 15.998C26.7569 15.998 29.0003 18.2411 29.0003 20.9982C29.0003 23.7553 26.7572 25.9983 24.0001 25.9983ZM24.0001 17.9985C22.3458 17.9985 21 19.3442 21 20.9986C21 22.6531 22.3457 23.9988 24.0001 23.9988C25.6546 23.9988 27.0002 22.6531 27.0002 20.9986C27.0002 19.3442 25.6546 17.9985 24.0001 17.9985Z" fill="#54595F"/>
<path d="M5.00014 10.0003C2.24341 10.0003 0 7.75723 0 5.00014C0 2.24341 2.24304 0 5.00014 0C7.75686 0 10.0003 2.24304 10.0003 5.00014C10.0003 7.75714 7.75723 10.0003 5.00014 10.0003ZM5.00014 2.0005C3.34618 2.0005 2.00041 3.34618 2.00041 5.00023C2.00041 6.65456 3.34609 8.00033 5.00051 8.00033C6.65484 8.00033 8.00061 6.65466 8.00061 5.00023C8.00025 3.34627 6.65447 2.0005 5.00014 2.0005Z" fill="#54595F"/>
<path d="M43.0001 10.0003C40.2434 10.0003 38 7.75723 38 5.00014C38 2.24341 40.243 0 43.0001 0C45.7569 0 48.0003 2.24304 48.0003 5.00014C47.9999 7.75714 45.7569 10.0003 43.0001 10.0003ZM43.0001 2.0005C41.3458 2.0005 40 3.34618 40 5.0006C40 6.65493 41.3457 8.0007 43.0001 8.0007C44.6545 8.0007 46.0002 6.65503 46.0002 5.0006C45.9999 3.34627 44.6542 2.0005 43.0001 2.0005Z" fill="#54595F"/>
<path d="M5.00014 48.0003C2.24341 48.0003 0 45.7572 0 43.0001C0 40.2434 2.24304 38 5.00014 38C7.75686 38 10.0003 40.243 10.0003 43.0001C10.0003 45.7571 7.75723 48.0003 5.00014 48.0003ZM5.00014 40.0005C3.34581 40.0005 2.00004 41.3462 2.00004 43.0006C2.00004 44.6549 3.34571 46.0007 5.00014 46.0007C6.65447 46.0007 8.00024 44.655 8.00024 43.0006C8.00024 41.3463 6.65456 40.0005 5.00014 40.0005Z" fill="#54595F"/>
<path d="M43.0001 48.0003C40.2434 48.0003 38 45.7572 38 43.0001C38 40.2434 40.243 38 43.0001 38C45.7569 38 48.0003 40.243 48.0003 43.0001C47.9999 45.7571 45.7569 48.0003 43.0001 48.0003ZM43.0001 40.0005C41.3458 40.0005 40 41.3462 40 43.0006C40 44.6549 41.3457 46.0007 43.0001 46.0007C44.6545 46.0007 46.0002 44.655 46.0002 43.0006C45.9999 41.3463 44.6542 40.0005 43.0001 40.0005Z" fill="#54595F"/>
<path d="M33.1952 15.8079C32.9395 15.8079 32.6834 15.7103 32.4883 15.5148C32.0977 15.1241 32.0977 14.4912 32.4883 14.1009L39.2958 7.29299C39.6864 6.90234 40.3194 6.90234 40.7097 7.29299C41.1004 7.68363 41.1004 8.31654 40.7097 8.70691L33.9022 15.5148C33.7067 15.7099 33.451 15.8079 33.1952 15.8079Z" fill="#54595F"/>
<path d="M14.8049 15.805C14.5492 15.805 14.2931 15.7074 14.098 15.5119L7.29299 8.70691C6.90234 8.31626 6.90234 7.68335 7.29299 7.29299C7.68363 6.90234 8.31654 6.90234 8.70691 7.29299L15.5119 14.098C15.9025 14.4886 15.9025 15.1215 15.5119 15.5119C15.3164 15.707 15.0606 15.805 14.8049 15.805Z" fill="#54595F"/>
<path d="M40.0014 41.0017C39.7362 41.0017 39.4722 40.8972 39.2752 40.689L32.6451 33.6892C32.2653 33.2884 32.2824 32.6554 32.6835 32.2757C33.0851 31.8966 33.7173 31.913 34.0971 32.3141L40.7272 39.3139C41.107 39.7147 41.0899 40.3477 40.6888 40.7275C40.4955 40.9107 40.2484 41.0017 40.0014 41.0017Z" fill="#54595F"/>
<path d="M7.99993 40.9999C7.74421 40.9999 7.48813 40.9023 7.29299 40.7068C6.90234 40.3162 6.90234 39.6833 7.29299 39.2929L14.098 32.4883C14.4886 32.0977 15.1215 32.0977 15.5119 32.4883C15.9026 32.8789 15.9026 33.5119 15.5119 33.9022L8.70691 40.7068C8.51176 40.902 8.25601 40.9999 7.99993 40.9999Z" fill="#54595F"/>
</svg>
