<svg width="45" height="45" viewBox="0 0 45 45" fill="none" xmlns="http://www.w3.org/2000/svg">
<path d="M40.9612 27.371C40.1875 24.8414 38.2667 22.9365 35.8646 22.1484C37.0428 21.3451 37.8179 19.9915 37.8179 18.4604C37.8179 16.0012 35.8187 14.0003 33.3608 14.0003C30.9035 14.0003 28.904 16.0012 28.904 18.4604C28.904 19.9921 29.6796 21.3459 30.8587 22.1492C29.3856 22.6342 28.0816 23.5454 27.1072 24.7938C26.472 24.4141 25.7873 24.1128 25.0666 23.8997C26.5029 23.0281 27.4646 21.4486 27.4646 19.6487C27.4646 16.9095 25.2375 14.6811 22.5003 14.6811C19.7632 14.6811 17.536 16.9095 17.536 19.6487C17.536 21.4486 18.4977 23.0281 19.934 23.8997C19.213 24.1128 18.5278 24.4146 17.8922 24.7943C16.9179 23.5457 15.6144 22.6344 14.1417 22.1492C15.3207 21.3458 16.0966 19.992 16.0966 18.4601C16.0966 16.0009 14.0974 14 11.6398 14C9.18196 14 7.18271 16.0009 7.18271 18.4601C7.18271 19.9912 7.95783 21.3447 9.13605 22.148C6.73335 22.9364 4.81263 24.8413 4.0389 27.3709C3.89627 27.8364 4.15816 28.3295 4.62354 28.4717C4.70912 28.498 4.79605 28.5105 4.88163 28.5105C5.25871 28.5105 5.60778 28.2664 5.72351 27.8866C6.52332 25.2708 8.90078 23.5136 11.6393 23.5136C13.5491 23.5136 15.3085 24.3732 16.4756 25.8453C15.3155 26.9003 14.4272 28.2708 13.9409 29.8601C13.7983 30.3255 14.0602 30.8184 14.525 30.9611C14.9898 31.1038 15.4829 30.842 15.6253 30.3763C16.556 27.3361 19.3184 25.2934 22.5 25.2934C25.6816 25.2934 28.444 27.3362 29.3742 30.3763C29.4905 30.7558 29.839 30.9999 30.2161 30.9999C30.3017 30.9999 30.3886 30.9874 30.4745 30.9611C30.9393 30.8186 31.2012 30.3255 31.0585 29.8601C30.572 28.2702 29.6834 26.8996 28.5227 25.8442C29.6901 24.3726 31.4498 23.5133 33.3602 23.5133C36.0987 23.5133 38.4761 25.2709 39.2759 27.8864C39.3917 28.2662 39.7408 28.5103 40.1178 28.5103C40.2031 28.5103 40.2903 28.4978 40.3759 28.4714C40.8418 28.3293 41.1037 27.8364 40.9611 27.371L40.9612 27.371ZM11.6395 21.1572C10.1531 21.1572 8.94417 19.9474 8.94417 18.4601C8.94417 16.9728 10.1531 15.7631 11.6395 15.7631C13.1252 15.7631 14.3342 16.9728 14.3342 18.4601C14.3342 19.9474 13.1252 21.1572 11.6395 21.1572ZM22.5002 22.8533C20.734 22.8533 19.2977 21.4158 19.2977 19.6487C19.2977 17.8816 20.7343 16.444 22.5002 16.444C24.2664 16.444 25.7027 17.8816 25.7027 19.6487C25.7027 21.4158 24.2664 22.8533 22.5002 22.8533ZM33.3609 21.1572C31.8751 21.1572 30.6662 19.9474 30.6662 18.4601C30.6662 16.9728 31.8751 15.7631 33.3609 15.7631C34.8472 15.7631 36.0562 16.9728 36.0562 18.4601C36.0559 19.9474 34.847 21.1572 33.3609 21.1572Z" fill="#54595F"/>
<circle cx="22.5" cy="22.5" r="21.75" stroke="#54595F" stroke-width="1.5"/>
</svg>
