<svg width="29" height="34" viewBox="0 0 29 34" fill="none" xmlns="http://www.w3.org/2000/svg">
<path d="M10.0473 23.6289C9.61139 23.6289 9.25781 23.2753 9.25781 22.8394V13.4949C9.29141 12.6792 9.74579 11.9396 10.4582 11.541C11.1706 11.1426 12.0389 11.1426 12.7513 11.541C13.4639 11.9395 13.9184 12.6792 13.9519 13.4949V22.4721C13.9519 22.9083 13.5983 23.2619 13.1621 23.2619C12.7262 23.2619 12.3726 22.9083 12.3726 22.4721V13.4949C12.3437 13.0923 12.0086 12.7803 11.6048 12.7803C11.2011 12.7803 10.8657 13.0923 10.837 13.4949V22.8394C10.837 23.0487 10.7536 23.2494 10.6057 23.3976C10.4576 23.5458 10.2568 23.6289 10.0472 23.6289L10.0473 23.6289Z" fill="#54595F"/>
<path d="M10.0502 23.6267C9.79267 23.627 9.55088 23.5019 9.40273 23.291L6.90364 19.738H6.90392C6.76568 19.5321 6.55115 19.39 6.30772 19.3431C5.94009 19.2779 5.56939 19.4404 5.36812 19.7548C5.16681 20.069 5.1748 20.4738 5.38795 20.7804C5.51655 20.9511 5.57052 21.1667 5.53721 21.378C5.50389 21.5894 5.3863 21.7781 5.21143 21.9012C5.03656 22.0243 4.81901 22.0711 4.60889 22.0309C4.39904 21.9907 4.21399 21.867 4.09695 21.6883C3.71638 21.1447 3.56739 20.4722 3.6825 19.8187C3.79761 19.1652 4.16745 18.5841 4.71079 18.2033C5.25412 17.8225 5.92659 17.6729 6.58011 17.7878C7.23002 17.902 7.8072 18.2716 8.18281 18.8141L10.6858 22.3671V22.3674C10.9347 22.724 10.8483 23.2148 10.4925 23.4647C10.365 23.5625 10.2107 23.619 10.0502 23.6267Z" fill="#54595F"/>
<path d="M13.1626 23.2605C12.7266 23.2605 12.3731 22.9069 12.3731 22.4707V11.9376C12.3469 11.2985 12.5826 10.6761 13.0254 10.2148C13.4685 9.75325 14.0804 9.49219 14.7201 9.49219C15.3599 9.49219 15.9718 9.75325 16.4148 10.2148C16.8577 10.6761 17.0934 11.2984 17.0672 11.9376V21.4838C17.0672 21.92 16.7136 22.2735 16.2777 22.2735C15.8415 22.2735 15.4879 21.92 15.4879 21.4838V11.9376C15.5034 11.7245 15.4293 11.5144 15.2836 11.3579C15.1379 11.2015 14.9339 11.1126 14.7202 11.1126C14.5065 11.1126 14.3024 11.2015 14.1567 11.3579C14.0111 11.5144 13.937 11.7245 13.9524 11.9376V22.4707C13.9524 22.6803 13.8692 22.881 13.7211 23.0292C13.5729 23.1771 13.3721 23.2605 13.1626 23.2605Z" fill="#54595F"/>
<path d="M20.6402 33.1613C20.2042 33.1613 19.8507 32.808 19.8507 32.3718V30.7928C19.852 30.6706 19.8818 30.5502 19.9377 30.4414C20.9012 28.5071 21.4052 26.3765 21.4102 24.2156V15.8299C21.4102 15.492 21.1362 15.218 20.7983 15.218C20.4604 15.218 20.1864 15.492 20.1864 15.8299V22.4702C20.1864 22.9064 19.8328 23.2599 19.3969 23.2599C18.9607 23.2599 18.6071 22.9064 18.6071 22.4702V13.4929C18.5784 13.0903 18.243 12.7783 17.8393 12.7783C17.4356 12.7783 17.1005 13.0903 17.0715 13.4929V21.7398C17.0715 22.176 16.7179 22.5293 16.282 22.5293C15.8458 22.5293 15.4922 22.176 15.4922 21.7398V13.4929C15.5258 12.6773 15.9802 11.9376 16.6926 11.5391C17.4052 11.1406 18.2735 11.1406 18.9859 11.5391C19.6983 11.9376 20.1527 12.6773 20.1863 13.4929V13.7259C20.3915 13.6667 20.6043 13.6375 20.818 13.6392C21.3952 13.6452 21.9468 13.8788 22.3533 14.2888C22.7597 14.6991 22.9883 15.2526 22.9891 15.8301V24.2158C22.9809 26.5668 22.4411 28.8855 21.4101 30.9982V32.3721C21.4101 32.8006 21.0686 33.1509 20.6401 33.1616L20.6402 33.1613Z" fill="#54595F"/>
<path d="M7.24272 25.5948C6.98936 25.5945 6.75143 25.4728 6.60328 25.2671L4.1042 21.6943C3.9756 21.5235 3.92162 21.3076 3.95494 21.0964C3.98826 20.8852 4.10585 20.6963 4.28072 20.5735C4.45559 20.4504 4.67286 20.4035 4.88298 20.4438C5.0931 20.4837 5.27788 20.6073 5.39519 20.7863L7.89815 24.3592C8.06778 24.6004 8.08872 24.9163 7.95268 25.1779C7.81636 25.4395 7.54567 25.6033 7.25073 25.6028L7.24272 25.5948Z" fill="#54595F"/>
<path d="M10.3618 33.163C9.92557 33.163 9.57227 32.8097 9.57227 32.3735C9.57365 30.5078 9.00003 28.6867 7.92988 27.1583L4.09655 21.6865C3.96768 21.5157 3.91398 21.3001 3.94702 21.0886C3.98034 20.8774 4.09793 20.6887 4.2728 20.5656C4.44767 20.4426 4.66522 20.3957 4.87534 20.4359C5.08546 20.4762 5.27024 20.5998 5.38755 20.7785L9.22088 26.2542C10.4802 28.0462 11.1544 30.1834 11.1513 32.3735C11.1513 32.5828 11.0682 32.7839 10.92 32.9317C10.7721 33.0799 10.5711 33.163 10.3618 33.163Z" fill="#54595F"/>
<path d="M17.0794 9.41571C16.9517 9.41571 16.8255 9.38459 16.7124 9.32483L14.5333 8.18008L12.358 9.32483C12.0915 9.46665 11.7676 9.44434 11.5233 9.26727C11.2791 9.0902 11.1571 8.78921 11.2091 8.49208L11.6277 6.06814L9.8628 4.34256C9.648 4.13272 9.5709 3.81906 9.6637 3.53346C9.75678 3.24761 10.0038 3.0397 10.3009 2.99646L12.7367 2.64507L13.8264 0.438132H13.8267C13.96 0.169908 14.2337 1.32196e-06 14.5333 1.32196e-06C14.8351 -0.000549408 15.111 0.171015 15.2438 0.441988L16.3334 2.64893L18.7692 3.00032C19.065 3.04466 19.3101 3.25202 19.4029 3.53622C19.4957 3.82041 19.42 4.13242 19.2076 4.34257L17.443 6.06371L17.8379 8.48764L17.8376 8.48792C17.8776 8.71952 17.8123 8.95662 17.6597 9.13534C17.5072 9.31379 17.283 9.41513 17.0481 9.41183L17.0794 9.41571ZM12.1327 4.3426L13.0448 5.23482C13.2208 5.41712 13.2985 5.67268 13.2541 5.9219L13.0371 7.18121L14.1662 6.58914H14.1659C14.3959 6.46825 14.6704 6.46825 14.9004 6.58914L16.0333 7.18121L15.8163 5.9219C15.772 5.66607 15.856 5.40474 16.0413 5.22298L16.9572 4.3426L15.686 4.14928C15.4286 4.11266 15.2055 3.95183 15.0898 3.71886L14.5253 2.57411L13.9608 3.71886C13.8459 3.95073 13.6245 4.11155 13.3687 4.14928L12.1327 4.3426Z" fill="#54595F"/>
<path d="M24.232 29.6082C24.0233 29.6082 23.8234 29.5259 23.6752 29.3791C23.5271 29.2312 23.4436 29.0302 23.4436 28.8206C23.4436 28.6111 23.5271 28.41 23.6752 28.2619C25.5971 26.319 26.8534 23.8169 27.2634 21.1148C27.6737 18.413 27.2169 15.6506 25.9586 13.2254C24.7001 10.7995 22.7053 8.83523 20.2604 7.61442C19.8843 7.41284 19.7366 6.94909 19.9264 6.56717C20.1164 6.18521 20.5755 6.02301 20.9629 6.20119C23.7112 7.57012 25.9537 9.77621 27.3678 12.5017C28.7819 15.2268 29.2944 18.3307 28.8315 21.3661C28.3688 24.4011 26.9545 27.2111 24.7924 29.3909C24.6415 29.5343 24.4402 29.6125 24.232 29.6081L24.232 29.6082Z" fill="#54595F"/>
<path d="M7.24268 31.6025C7.09508 31.603 6.94995 31.562 6.82438 31.484C3.85 29.6277 1.64912 26.7568 0.628238 23.4022C-0.392361 20.048 -0.163737 16.4377 1.27236 13.2392C2.70819 10.0406 5.25408 7.47045 8.43918 6.00466C8.83601 5.82152 9.30638 5.99474 9.48946 6.39157C9.67254 6.7884 9.49938 7.25849 9.10255 7.44164C6.2631 8.74613 3.99285 11.0351 2.71205 13.8853C1.43152 16.7352 1.22722 19.9531 2.13732 22.9422C3.04717 25.9311 5.00984 28.4892 7.66148 30.1421C7.96164 30.3283 8.10181 30.6912 8.0046 31.0308C7.90739 31.3703 7.59621 31.6041 7.24287 31.6027L7.24268 31.6025Z" fill="#54595F"/>
</svg>
