<svg width="44" height="44" viewBox="0 0 44 44" fill="none" xmlns="http://www.w3.org/2000/svg">
<g filter="url(#filter0_d_1714_453)">
<circle cx="22" cy="20" r="17.5" fill="#D9D9D9" fill-opacity="0.31" stroke="#54595F"/>
<path d="M21.8839 23.9395C20.8642 23.9395 19.9056 23.5424 19.1845 22.8213C18.4635 22.1005 18.0664 21.1418 18.0664 20.1221C18.0664 19.1025 18.4634 18.1437 19.1845 17.4228C19.9056 16.7018 20.8641 16.3047 21.8839 16.3047C22.9035 16.3047 23.8622 16.7017 24.5831 17.4228C26.0715 18.9112 26.0715 21.333 24.5831 22.8213C23.8622 23.5424 22.9035 23.9395 21.8839 23.9395ZM21.8839 17.0714C21.069 17.0714 20.3029 17.3887 19.7267 17.9649C19.1505 18.5411 18.8332 19.3072 18.8332 20.1221C18.8332 20.9369 19.1505 21.703 19.7267 22.2793C20.3029 22.8555 21.069 23.1728 21.8839 23.1728C22.6987 23.1728 23.4648 22.8554 24.0411 22.2793C25.2305 21.0898 25.2305 19.1544 24.0411 17.9649C23.4649 17.3887 22.6987 17.0714 21.8839 17.0714Z" fill="black"/>
<path d="M21.8809 27.3741C19.9439 27.3741 18.123 26.6199 16.7533 25.2502C13.926 22.4229 13.926 17.8225 16.7533 14.995C18.123 13.6253 19.9439 12.8711 21.8809 12.8711C23.8178 12.8711 25.6388 13.6254 27.0084 14.995C29.8358 17.8224 29.8358 22.4229 27.0084 25.2502C25.6388 26.6198 23.8178 27.3741 21.8809 27.3741ZM21.8809 13.6378C20.1487 13.6378 18.5203 14.3123 17.2954 15.5371C14.767 18.0656 14.767 22.1797 17.2954 24.7081C18.5202 25.9328 20.1487 26.6073 21.8809 26.6073C23.613 26.6073 25.2415 25.9328 26.4664 24.7081C28.9948 22.1796 28.9948 18.0655 26.4664 15.5371C25.2416 14.3122 23.6131 13.6378 21.8809 13.6378Z" fill="black"/>
<path d="M21.8838 30.8018C19.1474 30.8018 16.4111 29.7603 14.3278 27.6772C10.1616 23.5108 10.1616 16.7317 14.3278 12.5653C16.131 10.7622 18.5222 9.66195 21.061 9.46702C23.5721 9.27401 26.0756 9.97332 28.1101 11.4355C28.282 11.559 28.3212 11.7986 28.1976 11.9705C28.074 12.1424 27.8343 12.1814 27.6627 12.0581C23.7034 9.21268 18.3234 9.65409 14.87 13.1075C11.0026 16.9749 11.0026 23.2676 14.87 27.1351C16.8034 29.0686 19.344 30.0353 21.8838 30.0356C24.4241 30.0358 26.9636 29.0691 28.8976 27.1351C32.3512 23.6813 32.7926 18.3012 29.947 14.3424C29.8235 14.1706 29.8626 13.931 30.0345 13.8074C30.2064 13.6838 30.4459 13.7229 30.5695 13.8949C32.0317 15.929 32.7307 18.4323 32.538 20.9437C32.3431 23.4827 31.2428 25.874 29.4397 27.6772C27.3565 29.7603 24.6202 30.8018 21.8838 30.8018Z" fill="black"/>
<path d="M21.8834 20.507C21.7853 20.507 21.6872 20.4695 21.6123 20.3947C21.4626 20.245 21.4626 20.0023 21.6123 19.8525L30.2862 11.1787C30.4358 11.029 30.6786 11.029 30.8283 11.1787C30.9781 11.3285 30.9781 11.5711 30.8283 11.7208L22.1543 20.3947C22.0797 20.4695 21.9815 20.507 21.8834 20.507Z" fill="black"/>
<path d="M27.5087 14.8827C27.4758 14.8827 27.4428 14.8785 27.4104 14.8699C27.2782 14.8348 27.1748 14.7321 27.1389 14.6002L26.6307 12.7367C26.5945 12.604 26.6322 12.4621 26.7295 12.3648L29.7788 9.31534C29.8755 9.21864 30.0164 9.18107 30.1482 9.21586C30.2802 9.25093 30.3836 9.35367 30.4197 9.48544L30.928 11.349C30.9641 11.4818 30.9264 11.6237 30.8292 11.721L27.7797 14.7704C27.7069 14.8432 27.609 14.8827 27.5087 14.8827ZM27.4289 12.7496L27.7048 13.7612L30.1299 11.3362L29.854 10.3245L27.4289 12.7496Z" fill="black"/>
<path d="M29.3718 15.3907C29.3381 15.3907 29.3043 15.3863 29.2709 15.3772L27.4074 14.869C27.2757 14.833 27.1729 14.7296 27.1379 14.5976C27.1028 14.4655 27.1406 14.3247 27.2373 14.2281L30.2868 11.1787C30.384 11.0814 30.5262 11.0437 30.6587 11.08L32.5222 11.5882C32.654 11.6241 32.7567 11.7275 32.7918 11.8596C32.8269 11.9917 32.789 12.1324 32.6923 12.229L29.6429 15.2785C29.5701 15.3513 29.4722 15.3907 29.3718 15.3907ZM28.2465 14.3032L29.2581 14.5791L31.6833 12.154L30.6716 11.8781L28.2465 14.3032Z" fill="black"/>
</g>
<defs>
<filter id="filter0_d_1714_453" x="0" y="0" width="44" height="44" filterUnits="userSpaceOnUse" color-interpolation-filters="sRGB">
<feFlood flood-opacity="0" result="BackgroundImageFix"/>
<feColorMatrix in="SourceAlpha" type="matrix" values="0 0 0 0 0 0 0 0 0 0 0 0 0 0 0 0 0 0 127 0" result="hardAlpha"/>
<feOffset dy="2"/>
<feGaussianBlur stdDeviation="2"/>
<feComposite in2="hardAlpha" operator="out"/>
<feColorMatrix type="matrix" values="0 0 0 0 0 0 0 0 0 0 0 0 0 0 0 0 0 0 0.37 0"/>
<feBlend mode="normal" in2="BackgroundImageFix" result="effect1_dropShadow_1714_453"/>
<feBlend mode="normal" in="SourceGraphic" in2="effect1_dropShadow_1714_453" result="shape"/>
</filter>
</defs>
</svg>
