<svg width="28" height="28" viewBox="0 0 28 28" fill="none" xmlns="http://www.w3.org/2000/svg">
<path d="M26 6.96H23.76C24.4 6.2176 24.8 5.2896 24.8 4.25333C24.8 1.9024 22.832 0 20.4 0C17.712 0 15.344 1.37653 14 3.41813C12.656 1.37653 10.288 0 7.6 0C5.168 0 3.2 1.9024 3.2 4.25333C3.2 5.2896 3.6 6.2176 4.24 6.96H2C0.896 6.96 0 7.82613 0 8.89333V12.76C0 13.688 0.688 14.4304 1.6 14.616V25.1333C1.6 26.2005 2.496 27.0667 3.6 27.0667H24.4C25.504 27.0667 26.4 26.2005 26.4 25.1333V14.616C27.312 14.4304 28 13.688 28 12.76V8.89333C28 7.82613 27.104 6.96 26 6.96ZM25.6 12.3733H15.2V9.28H25.6V12.3733ZM20.4 2.32C21.504 2.32 22.4 3.18613 22.4 4.25333C22.4 5.32053 21.504 6.18667 20.4 6.18667H15.344C15.888 3.97493 17.952 2.32 20.4 2.32ZM7.6 2.32C10.048 2.32 12.112 3.97493 12.656 6.18667H7.6C6.496 6.18667 5.6 5.32053 5.6 4.25333C5.6 3.18613 6.496 2.32 7.6 2.32ZM2.4 9.28H12.8V12.3733H2.4V9.28ZM4 14.6933H12.8V24.7467H4V14.6933ZM24 24.7467H15.2V14.6933H24V24.7467Z" fill="#54595F"/>
</svg>
