<svg width="71" height="51" viewBox="0 0 71 51" fill="none" xmlns="http://www.w3.org/2000/svg">
<path fill-rule="evenodd" clip-rule="evenodd" d="M35.5592 14.0193C32.7658 13.7387 30.9115 14.3535 29.0271 15.8016C22.4707 20.8385 25.6332 35.9891 26.238 37.3087C27.1349 39.2659 39.8285 44.7605 42.0749 44.9804C44.322 45.2003 52.8962 22.7357 52.8962 22.7357C52.8962 22.7357 41.0309 14.5691 35.5592 14.0193Z" fill="#9A5F5F"/>
<path fill-rule="evenodd" clip-rule="evenodd" d="M49.2953 22.2763C39.1615 26.4485 41.3608 44.6238 42.0756 44.9816C42.7903 45.3386 51.8087 40.6223 52.1657 40.1546C52.5235 39.6876 58.9363 18.3069 49.2953 22.2763Z" fill="#C27D78"/>
<path fill-rule="evenodd" clip-rule="evenodd" d="M48.9235 22.4423C50.9628 21.4741 52.3009 21.6868 53.1663 22.533L53.1706 22.5308C53.1706 22.5308 51.8318 20.2509 49.384 20.2509C47.1269 20.2509 40.3721 22.6808 39.2996 35.1366C39.2996 35.1366 33.0766 32.1948 30.9445 31.0673C28.8124 29.9391 24.7309 27.4299 24.7309 27.4299C24.7309 27.4299 23.874 13.4417 35.5601 14.0194C35.5601 14.0194 33.8485 12.9491 32.1634 13.0019C21.7768 13.3254 23.0493 28.8402 23.0493 28.8402C23.0493 28.8402 26.5959 31.8641 31.2979 34.1741C36.4434 36.7018 42.3521 38.6347 42.3521 38.6347C41.5267 38.1399 41.738 25.8547 48.9235 22.4423Z" fill="#F1A969"/>
<path fill-rule="evenodd" clip-rule="evenodd" d="M24.7289 27.4299L25.9342 26.9979C25.9342 26.9979 24.7289 16.7142 35.5581 14.0194C23.872 13.4417 24.7289 27.4299 24.7289 27.4299Z" fill="#F7BF6D"/>
<path fill-rule="evenodd" clip-rule="evenodd" d="M39.2992 35.1368L39.442 33.7865L25.9358 26.998L24.7305 27.43C24.7305 27.43 28.812 29.9392 30.9441 31.0674C33.0755 32.1949 39.2992 35.1368 39.2992 35.1368Z" fill="#FBDF89"/>
<path fill-rule="evenodd" clip-rule="evenodd" d="M51.419 31.1426C47.0876 33.661 43.4531 34.9106 43.4531 34.9106C43.4531 34.9106 44.1093 35.5361 44.6477 35.5375C46.1715 35.5404 52.2945 32.0244 52.5322 31.4153L51.419 31.1426Z" fill="#F7BF6D"/>
<path fill-rule="evenodd" clip-rule="evenodd" d="M51.756 24.9141C51.756 24.9141 52.3558 27.7852 51.4219 31.1434L52.5351 31.4162C52.5351 31.4162 53.8882 26.1786 51.756 24.9141Z" fill="#F1A969"/>
<path fill-rule="evenodd" clip-rule="evenodd" d="M52.5312 31.416C52.2741 31.8566 45.1536 35.9174 44.4796 35.5125C43.8369 35.1269 45.0894 27.2638 49.2965 25.1188C54.1285 22.6554 52.7882 30.9755 52.5312 31.416ZM48.9216 22.4433C41.7362 25.855 41.3877 38.1066 42.2125 38.6022C43.0779 39.1206 53.6508 33.4875 53.9814 32.9227C54.3113 32.3571 56.7583 18.7217 48.9216 22.4433Z" fill="#FBDF89"/>
<path fill-rule="evenodd" clip-rule="evenodd" d="M34.6085 35.6875L34.1836 39.7683C34.1836 39.7683 35.1133 39.4941 35.426 39.1371C35.7381 38.7793 35.6245 36.1159 35.6245 36.1159L34.6085 35.6875Z" fill="#FBDF89"/>
<path fill-rule="evenodd" clip-rule="evenodd" d="M29.14 33.0273C29.14 33.0273 29.0422 36.8696 29.4271 37.4744C29.8119 38.0792 33.7977 40.0443 34.1826 39.7694C34.5675 39.4945 34.6075 35.6886 34.6075 35.6886L29.14 33.0273Z" fill="#F1A969"/>
<path fill-rule="evenodd" clip-rule="evenodd" d="M32.2665 37.9528L32.1216 36.7947C32.2437 36.7718 32.36 36.7283 32.4507 36.6376C32.7206 36.3677 32.6842 35.8921 32.3679 35.5758C32.0516 35.2602 31.5767 35.223 31.3061 35.493C31.0355 35.7636 31.0726 36.2391 31.3889 36.5547C31.4075 36.5733 31.4304 36.5812 31.4496 36.5983L31.1055 37.3566L32.2665 37.9528Z" fill="#4E433A"/>
<path fill-rule="evenodd" clip-rule="evenodd" d="M26.1531 23.4531L26.0117 24.3235L38.1726 29.8588L26.1531 23.4531Z" fill="#7F5253"/>
<path fill-rule="evenodd" clip-rule="evenodd" d="M27.5234 19.6992L27.1328 20.449L39.4423 26.0514L27.5234 19.6992Z" fill="#7F5253"/>
<path fill-rule="evenodd" clip-rule="evenodd" d="M30.2274 16.5391L29.5469 17.1274L41.7749 22.6927L30.2274 16.5391Z" fill="#7F5253"/>
<path fill-rule="evenodd" clip-rule="evenodd" d="M33.5596 14.6523L32.6992 15.0208L44.7145 20.5968L33.5596 14.6523Z" fill="#7F5253"/>
<mask id="mask0_373_718" style="mask-type:luminance" maskUnits="userSpaceOnUse" x="0" y="0" width="18" height="19">
<path d="M0 0H18V18.3938H0V0Z" fill="white"/>
</mask>
<g mask="url(#mask0_373_718)">
<path fill-rule="evenodd" clip-rule="evenodd" d="M15.3905 10.6213C15.3905 10.6213 14.9938 11.9631 14.5594 12.3976C14.1246 12.832 12.7825 13.2284 12.7825 13.2284C12.7825 13.2284 14.1246 13.6248 14.5594 14.0593C14.9938 14.4938 15.3905 15.8353 15.3905 15.8353C15.3905 15.8353 15.7869 14.4938 16.2214 14.0593C16.6564 13.6248 17.9985 13.2284 17.9985 13.2284C17.9985 13.2284 16.6564 12.832 16.2214 12.3976C15.7869 11.9631 15.3905 10.6213 15.3905 10.6213ZM3.95537 10.4763C3.95537 10.4763 3.3542 12.5112 2.69473 13.1701C2.03584 13.829 0 14.4302 0 14.4302C0 14.4302 2.03584 15.0313 2.69473 15.6902C3.3542 16.3494 3.95537 18.3844 3.95537 18.3844C3.95537 18.3844 4.55684 16.3494 5.21602 15.6902C5.87549 15.0313 7.91104 14.4302 7.91104 14.4302C7.91104 14.4302 5.87549 13.829 5.21602 13.1701C4.55684 12.5112 3.95537 10.4763 3.95537 10.4763ZM10.0228 0.0117188C10.0228 0.0117188 9.10049 3.1333 8.08916 4.14404C7.07783 5.15479 3.95537 6.07676 3.95537 6.07676C3.95537 6.07676 7.07783 6.99873 8.08916 8.00977C9.10049 9.02051 10.0228 12.1418 10.0228 12.1418C10.0228 12.1418 10.945 9.02051 11.9563 8.00977C12.9677 6.99873 16.0898 6.07676 16.0898 6.07676C16.0898 6.07676 12.9677 5.15479 11.9563 4.14404C10.945 3.1333 10.0228 0.0117188 10.0228 0.0117188Z" fill="#FFDE50"/>
</g>
<mask id="mask1_373_718" style="mask-type:luminance" maskUnits="userSpaceOnUse" x="53" y="32" width="18" height="19">
<path d="M53 32H71V50.3938H53V32Z" fill="white"/>
</mask>
<g mask="url(#mask1_373_718)">
<path fill-rule="evenodd" clip-rule="evenodd" d="M68.3905 42.6213C68.3905 42.6213 67.9938 43.9631 67.5594 44.3976C67.1246 44.832 65.7825 45.2284 65.7825 45.2284C65.7825 45.2284 67.1246 45.6248 67.5594 46.0593C67.9938 46.4938 68.3905 47.8353 68.3905 47.8353C68.3905 47.8353 68.7869 46.4938 69.2214 46.0593C69.6564 45.6248 70.9985 45.2284 70.9985 45.2284C70.9985 45.2284 69.6564 44.832 69.2214 44.3976C68.7869 43.9631 68.3905 42.6213 68.3905 42.6213ZM56.9554 42.4763C56.9554 42.4763 56.3542 44.5112 55.6947 45.1701C55.0358 45.829 53 46.4302 53 46.4302C53 46.4302 55.0358 47.0313 55.6947 47.6902C56.3542 48.3494 56.9554 50.3844 56.9554 50.3844C56.9554 50.3844 57.5568 48.3494 58.216 47.6902C58.8755 47.0313 60.911 46.4302 60.911 46.4302C60.911 46.4302 58.8755 45.829 58.216 45.1701C57.5568 44.5112 56.9554 42.4763 56.9554 42.4763ZM63.0228 32.0117C63.0228 32.0117 62.1005 35.1333 61.0892 36.144C60.0778 37.1548 56.9554 38.0768 56.9554 38.0768C56.9554 38.0768 60.0778 38.9987 61.0892 40.0098C62.1005 41.0205 63.0228 44.1418 63.0228 44.1418C63.0228 44.1418 63.945 41.0205 64.9563 40.0098C65.9677 38.9987 69.0898 38.0768 69.0898 38.0768C69.0898 38.0768 65.9677 37.1548 64.9563 36.144C63.945 35.1333 63.0228 32.0117 63.0228 32.0117Z" fill="#FFDE50"/>
</g>
</svg>
