<svg xmlns="http://www.w3.org/2000/svg" width="40" height="40" viewBox="0 0 40 40">
  <g id="Group_58248" data-name="Group 58248" transform="translate(-30 -204)">
    <path id="Path_49790" data-name="Path 49790" d="M20,0A20,20,0,1,1,0,20,20,20,0,0,1,20,0Z" transform="translate(30 204)" fill="#ebebeb"/>
    <path id="time-svgrepo-com" d="M162.538,160.361l2.566,1.482a.531.531,0,0,1,.191.718.519.519,0,0,1-.717.194l-2.611-1.507a1.579,1.579,0,1,1-1.494-2.737v-4.823a.526.526,0,1,1,1.053,0v4.823A1.58,1.58,0,0,1,162.579,160,1.631,1.631,0,0,1,162.538,160.361ZM161,170a10,10,0,1,0-10-10A10,10,0,0,0,161,170Zm0-1.053A8.947,8.947,0,1,0,152.053,160,8.948,8.948,0,0,0,161,168.947Z" transform="translate(-110.897 64)" fill-rule="evenodd"/>
  </g>
</svg>
