<svg xmlns="http://www.w3.org/2000/svg" width="40" height="40" viewBox="0 0 40 40">
  <g id="Group_58247" data-name="Group 58247" transform="translate(-36 -324)">
    <circle id="Ellipse_823" data-name="Ellipse 823" cx="20" cy="20" r="20" transform="translate(36 324)" fill="#ebebeb"/>
    <g id="cover-dish-svgrepo-com" transform="translate(46 277.818)">
      <g id="Group_57984" data-name="Group 57984" transform="translate(8.681 58.182)">
        <g id="Group_57983" data-name="Group 57983" transform="translate(0 0)">
          <path id="Path_49787" data-name="Path 49787" d="M222.918,60.923v-.091a1.331,1.331,0,0,0,.914-1.279,1.371,1.371,0,1,0-2.741,0A1.331,1.331,0,0,0,222,60.832v.548a.432.432,0,0,0,.457.457,7.76,7.76,0,0,1,7.767,7.767.457.457,0,0,0,.914,0A8.713,8.713,0,0,0,222.918,60.923Zm-.457-.914a.457.457,0,1,1,.457-.457A.432.432,0,0,1,222.462,60.009Z" transform="translate(-221.091 -58.182)"/>
        </g>
      </g>
      <g id="Group_57986" data-name="Group 57986" transform="translate(5.026 62.881)">
        <g id="Group_57985" data-name="Group 57985" transform="translate(0 0)">
          <path id="Path_49788" data-name="Path 49788" d="M132.111,178.229a.5.5,0,0,0-.548-.366,6.766,6.766,0,0,0-3.427,1.919.442.442,0,0,0,0,.64.442.442,0,0,0,.64,0,5.821,5.821,0,0,1,2.97-1.645A.5.5,0,0,0,132.111,178.229Z" transform="translate(-127.999 -177.856)"/>
        </g>
      </g>
      <g id="Group_57988" data-name="Group 57988" transform="translate(0 61.099)">
        <g id="Group_57987" data-name="Group 57987">
          <path id="Path_49789" data-name="Path 49789" d="M19.92,143.263a1.68,1.68,0,0,0-1.462-.914H3.655a.457.457,0,1,0,0,.914h14.8a.647.647,0,0,1,.64.411.847.847,0,0,1,.091.32v.183H.914v-.183a.848.848,0,0,1,.091-.32.647.647,0,0,1,.64-.411h.183a.432.432,0,0,0,.457-.457v-1.827a7.728,7.728,0,0,1,6.031-7.584.466.466,0,0,0-.183-.914,8.7,8.7,0,0,0-6.762,8.5v1.416a1.554,1.554,0,0,0-1.188.868,1.447,1.447,0,0,0-.183.731v.64a.432.432,0,0,0,.457.457H19.646a.432.432,0,0,0,.457-.457v-.64A1.446,1.446,0,0,0,19.92,143.263Z" transform="translate(0 -132.473)"/>
        </g>
      </g>
    </g>
  </g>
</svg>
