<svg width="50" height="43" viewBox="0 0 50 43" fill="none" xmlns="http://www.w3.org/2000/svg">
<path fill-rule="evenodd" clip-rule="evenodd" d="M33.5369 37.9821C35.3712 37.9821 47.0302 37.9821 47.0302 36.0429V33.346C47.0302 33.0888 46.9398 32.8309 46.7885 32.6494C46.5915 32.3906 44.999 32.603 44.6352 32.603L23.0603 32.3906C22.6803 32.3906 20.4367 32.4061 20.2397 32.6942C20.103 32.8765 20.0273 33.1035 20.0273 33.346V36.0429C20.0273 38.3304 31.5952 37.9821 33.5369 37.9821Z" fill="#F9AB24"/>
<path fill-rule="evenodd" clip-rule="evenodd" d="M33.555 34.058C40.879 34.058 46.8521 33.468 46.8521 32.7552C46.8521 32.0285 40.879 31.4531 33.555 31.4531C26.2318 31.4531 20.2578 32.0285 20.2578 32.7552C20.2578 33.468 26.2318 34.058 33.555 34.058Z" fill="#F9D155"/>
<path fill-rule="evenodd" clip-rule="evenodd" d="M33.5519 31.7695C27.5177 31.7695 22.4381 32.1642 20.8008 32.694C23.4545 32.3302 28.1696 32.0877 33.5519 32.0877C38.9342 32.0877 43.6493 32.3302 46.303 32.694C44.6657 32.1642 39.5714 31.7695 33.5519 31.7695Z" fill="#F9AB24"/>
<path fill-rule="evenodd" clip-rule="evenodd" d="M33.5369 33.2381C35.3712 33.2381 47.0302 33.2235 47.0302 31.2834V28.5874C47.0302 28.3286 46.9398 28.0877 46.7885 27.89C46.5915 27.6328 44.999 27.8444 44.6352 27.8444L23.0603 27.6328C22.6803 27.6328 20.4367 27.6483 20.2397 27.9355C20.103 28.1325 20.0273 28.3441 20.0273 28.5874V31.2834C20.0273 33.5718 31.5952 33.2381 33.5369 33.2381Z" fill="#F9AB24"/>
<path fill-rule="evenodd" clip-rule="evenodd" d="M33.555 29.3018C40.879 29.3018 46.8521 28.7102 46.8521 27.999C46.8521 27.2707 40.879 26.6953 33.555 26.6953C26.2318 26.6953 20.2578 27.2707 20.2578 27.999C20.2578 28.7102 26.2318 29.3018 33.555 29.3018Z" fill="#F9D155"/>
<path fill-rule="evenodd" clip-rule="evenodd" d="M33.5519 27.0117C27.5177 27.0117 22.4381 27.4064 20.8008 27.9362C23.4545 27.5724 28.1696 27.3299 33.5519 27.3299C38.9342 27.3299 43.6493 27.5724 46.303 27.9362C44.6657 27.4064 39.5714 27.0117 33.5519 27.0117Z" fill="#F9AB24"/>
<path fill-rule="evenodd" clip-rule="evenodd" d="M33.5369 28.4811C35.3712 28.4811 47.0302 28.4657 47.0302 26.5272V23.8296C47.0302 23.5724 46.9398 23.3299 46.7885 23.133C46.5915 22.875 44.999 23.0874 44.6352 23.0874L23.0603 22.875C22.6803 22.875 20.4367 22.8905 20.2397 23.1785C20.103 23.3755 20.0273 23.5879 20.0273 23.8296V26.5272C20.0273 28.8148 31.5952 28.4811 33.5369 28.4811Z" fill="#F9AB24"/>
<path fill-rule="evenodd" clip-rule="evenodd" d="M33.555 24.5432C40.879 24.5432 46.8521 23.9524 46.8521 23.2404C46.8521 22.5137 40.879 21.9375 33.555 21.9375C26.2318 21.9375 20.2578 22.5137 20.2578 23.2404C20.2578 23.9524 26.2318 24.5432 33.555 24.5432Z" fill="#F9D155"/>
<path fill-rule="evenodd" clip-rule="evenodd" d="M33.5519 22.2539C27.5177 22.2539 22.4381 22.647 20.8008 23.1784C23.4545 22.8146 28.1696 22.5721 33.5519 22.5721C38.9342 22.5721 43.6493 22.8146 46.303 23.1784C44.6657 22.647 39.5714 22.2539 33.5519 22.2539Z" fill="#F9AB24"/>
<path fill-rule="evenodd" clip-rule="evenodd" d="M33.5369 23.7233C35.3712 23.7233 47.0302 23.7079 47.0302 21.7841V19.0718C47.0302 18.8138 46.9398 18.5721 46.7885 18.3743C46.5915 18.1172 44.999 18.3296 44.6352 18.3296L23.0603 18.1172C22.6803 18.1172 20.4367 18.1326 20.2397 18.4346C20.103 18.6168 20.0273 18.8292 20.0273 19.0718V21.7841C20.0273 24.057 31.5952 23.7233 33.5369 23.7233Z" fill="#F9AB24"/>
<path fill-rule="evenodd" clip-rule="evenodd" d="M33.555 19.7862C40.879 19.7862 46.8521 19.1954 46.8521 18.4834C46.8521 17.7558 40.879 17.1797 33.555 17.1797C26.2318 17.1797 20.2578 17.7558 20.2578 18.4834C20.2578 19.1954 26.2318 19.7862 33.555 19.7862Z" fill="#F9D155"/>
<path fill-rule="evenodd" clip-rule="evenodd" d="M33.5519 17.498C27.5177 17.498 22.4381 17.8919 20.8008 18.4217C23.4545 18.0587 28.1696 17.8154 33.5519 17.8154C38.9342 17.8154 43.6493 18.0587 46.303 18.4217C44.6657 17.8919 39.5714 17.498 33.5519 17.498Z" fill="#F9AB24"/>
<mask id="mask0_1151_397" style="mask-type:luminance" maskUnits="userSpaceOnUse" x="22" y="12" width="28" height="7">
<path d="M22.9297 12.8223H50.0001V18.6449H22.9297V12.8223Z" fill="white"/>
</mask>
<g mask="url(#mask0_1151_397)">
<path fill-rule="evenodd" clip-rule="evenodd" d="M36.4949 18.5573C38.3446 18.5573 50.0045 18.5427 50.0045 16.6181V13.9057C50.0045 13.6486 49.9133 13.4061 49.7611 13.2091C49.5487 12.9512 47.957 13.1782 47.6079 13.1628L26.0321 12.9512C25.6537 12.9512 23.4101 12.9813 23.1977 13.2694C23.0765 13.4516 23 13.6632 23 13.9057V16.6181C23 18.9056 34.554 18.5573 36.4949 18.5573Z" fill="#F9AB24"/>
</g>
<path fill-rule="evenodd" clip-rule="evenodd" d="M36.5081 14.6174C43.8305 14.6174 49.8199 14.0266 49.8199 13.3146C49.8199 12.6025 43.8305 12.0117 36.5081 12.0117C29.1841 12.0117 23.2109 12.6025 23.2109 13.3146C23.2109 14.0266 29.1841 14.6174 36.5081 14.6174Z" fill="#F9D155"/>
<path fill-rule="evenodd" clip-rule="evenodd" d="M36.5099 12.3301C30.4896 12.3301 25.3953 12.7239 23.7734 13.2553C26.4109 12.8908 31.1422 12.6491 36.5099 12.6491C41.8922 12.6491 46.6073 12.8908 49.2602 13.2553C47.6383 12.7239 42.5433 12.3301 36.5099 12.3301Z" fill="#F9AB24"/>
<path fill-rule="evenodd" clip-rule="evenodd" d="M33.1582 13.3913C35.0071 13.3913 46.6669 13.3758 46.6669 11.4366V8.73972C46.6669 8.48175 46.5766 8.23925 46.4244 8.04231C46.2128 7.78516 44.6202 7.99755 44.2719 7.99755L22.6807 7.78516C22.3023 7.78516 20.0734 7.80062 19.861 8.10334C19.7397 8.28482 19.6641 8.4964 19.6641 8.73972V11.4366C19.6641 13.7241 31.2173 13.3913 33.1582 13.3913Z" fill="#F9AB24"/>
<path fill-rule="evenodd" clip-rule="evenodd" d="M33.1713 9.45143C40.4954 9.45143 46.4685 8.86062 46.4685 8.14856C46.4685 7.42105 40.4954 6.8457 33.1713 6.8457C25.8481 6.8457 19.875 7.42105 19.875 8.14856C19.875 8.86062 25.8481 9.45143 33.1713 9.45143Z" fill="#F9D155"/>
<path fill-rule="evenodd" clip-rule="evenodd" d="M33.173 7.16406C27.1535 7.16406 22.06 7.55793 20.4219 8.0877C23.0756 7.72476 27.7906 7.48225 33.173 7.48225C38.5553 7.48225 43.2712 7.72476 45.9241 8.0877C44.2876 7.55793 39.208 7.16406 33.173 7.16406Z" fill="#F9AB24"/>
<path fill-rule="evenodd" clip-rule="evenodd" d="M27.6385 7.74056C29.4427 7.42237 40.9365 5.46768 40.6175 3.55855L40.1626 0.891795C40.1178 0.63464 39.9958 0.407596 39.8143 0.255419C39.5563 0.0283746 38.0248 0.513387 37.6765 0.573607L16.3734 3.96788C15.9942 4.0281 13.7969 4.42278 13.6293 4.74097C13.539 4.95255 13.5081 5.18041 13.539 5.42292L13.9931 8.08886C14.3723 10.3316 25.7131 8.05875 27.6385 7.74056Z" fill="#F9AB24"/>
<path fill-rule="evenodd" clip-rule="evenodd" d="M26.5459 1.28486C19.3147 2.51204 13.5377 4.08833 13.6581 4.78492C13.7794 5.49698 19.7533 5.073 26.9862 3.84582C34.2337 2.61864 39.9944 1.05781 39.8887 0.345756C39.7674 -0.366301 33.7934 0.0576783 26.5459 1.28486Z" fill="#F9D155"/>
<path fill-rule="evenodd" clip-rule="evenodd" d="M26.6097 1.60347C20.6658 2.60279 15.7083 3.84543 14.1914 4.64863C16.754 3.84543 21.3632 2.81519 26.6553 1.9062C31.9619 1.01185 36.6615 0.466621 39.3307 0.376291C37.6323 0.118323 32.5535 0.587874 26.6097 1.60347Z" fill="#F9AB24"/>
<mask id="mask1_1151_397" style="mask-type:luminance" maskUnits="userSpaceOnUse" x="0" y="14" width="28" height="29">
<path d="M0 14.3789H27.9159V42.2541H0V14.3789Z" fill="white"/>
</mask>
<g mask="url(#mask1_1151_397)">
<path fill-rule="evenodd" clip-rule="evenodd" d="M13.9189 42.2556C21.5904 42.2556 27.8524 35.9976 27.8524 28.3456C27.8524 20.679 21.5904 14.4219 13.9189 14.4219C6.26203 14.4219 0 20.679 0 28.3456C0 35.9976 6.26203 42.2556 13.9189 42.2556Z" fill="#F9AB24"/>
</g>
<path fill-rule="evenodd" clip-rule="evenodd" d="M13.9199 39.7992C20.2422 39.7992 25.3967 34.6479 25.3967 28.3444C25.3967 22.0262 20.2422 16.875 13.9199 16.875C7.61232 16.875 2.45703 22.0262 2.45703 28.3444C2.45703 34.6479 7.61232 39.7992 13.9199 39.7992Z" fill="#F9D155"/>
<path fill-rule="evenodd" clip-rule="evenodd" d="M13.9204 39.1496C19.8789 39.1496 24.7307 34.2857 24.7307 28.3459C24.7307 22.3915 19.8789 17.543 13.9204 17.543C7.97659 17.543 3.10938 22.3915 3.10938 28.3459C3.10938 34.2857 7.97659 39.1496 13.9204 39.1496Z" fill="#F9AB24"/>
<path fill-rule="evenodd" clip-rule="evenodd" d="M12.735 34.5586H15.2373V33.5584C16.6167 33.0742 17.6022 31.8617 17.6022 30.4075C17.6022 29.5888 17.3141 28.8621 16.7982 28.2705C16.1317 27.4836 15.0697 26.9684 13.9027 26.9684C13.4169 26.9684 13.0084 26.5892 13.0084 26.1343C13.0084 25.6802 13.4169 25.301 13.9027 25.301C14.4024 25.301 14.8117 25.6802 14.8117 26.1343H17.6022C17.6022 24.6956 16.6167 23.4684 15.2373 22.9834V21.8164H12.735V22.9378C11.2645 23.3772 10.2326 24.65 10.2326 26.1498C10.2326 28.0288 11.8553 29.5286 13.9027 29.5286C14.4024 29.5286 14.8117 29.9225 14.8117 30.3774C14.8117 30.8315 14.4024 31.1952 13.9027 31.1952C13.4169 31.1952 13.0084 30.8315 13.0084 30.3627H10.2188C10.2188 31.9227 11.2645 33.18 12.735 33.6195V34.5586Z" fill="#F9D155"/>
<mask id="mask2_1151_397" style="mask-type:luminance" maskUnits="userSpaceOnUse" x="13" y="42" width="1" height="1">
<path d="M13.4375 42.1973H13.9119V42.255H13.4375V42.1973Z" fill="white"/>
</mask>
<g mask="url(#mask2_1151_397)">
<path d="M13.9072 42.2542C13.9056 42.2542 13.904 42.2542 13.9031 42.2542C13.904 42.2542 13.9064 42.2542 13.9072 42.2542ZM13.8836 42.2542C13.882 42.2542 13.8804 42.2542 13.8787 42.2542C13.8804 42.2542 13.8812 42.2542 13.8836 42.2542ZM13.86 42.2542C13.8584 42.2542 13.8568 42.2542 13.8551 42.2542C13.8568 42.2542 13.8576 42.2542 13.86 42.2542ZM13.8478 42.2542C13.8462 42.2542 13.8454 42.2542 13.8429 42.2542C13.8446 42.2542 13.847 42.2542 13.8478 42.2542ZM13.8364 42.2534C13.8348 42.2534 13.8323 42.2534 13.8315 42.2534C13.8332 42.2534 13.8348 42.2534 13.8364 42.2534ZM13.7127 42.2526C13.7119 42.2526 13.7103 42.2526 13.7087 42.2526C13.7095 42.2526 13.7119 42.2526 13.7127 42.2526ZM13.7013 42.2526C13.6997 42.2526 13.6981 42.2526 13.6964 42.2526C13.6981 42.2526 13.6989 42.2526 13.7013 42.2526ZM13.6883 42.2526C13.6867 42.2526 13.6859 42.2526 13.6851 42.2526C13.6859 42.2526 13.6875 42.2526 13.6883 42.2526ZM13.6745 42.2526C13.6737 42.2526 13.6737 42.2518 13.6737 42.2518C13.6737 42.2526 13.6737 42.2526 13.6745 42.2526ZM13.6134 42.251C13.6126 42.251 13.6118 42.251 13.6102 42.251C13.6118 42.251 13.6118 42.251 13.6134 42.251ZM13.5768 42.2502C13.576 42.2502 13.5752 42.2502 13.5744 42.2502C13.576 42.2502 13.576 42.2502 13.5768 42.2502ZM13.4784 42.2477C13.4784 42.2477 13.4775 42.2477 13.4767 42.2477C13.4775 42.2477 13.4775 42.2477 13.4784 42.2477Z" fill="#F5F5F5"/>
</g>
<path d="M27.8543 28.3231C27.8543 28.3206 27.8543 28.3198 27.8543 28.3182C27.8543 28.319 27.8543 28.3206 27.8543 28.3231ZM27.8543 28.2978C27.8543 28.297 27.8543 28.2946 27.8543 28.293C27.8543 28.2954 27.8543 28.2962 27.8543 28.2978ZM27.8535 28.2319C27.8535 28.2311 27.8535 28.2287 27.8535 28.2279C27.8535 28.2295 27.8535 28.2311 27.8535 28.2319ZM27.8535 28.1953C27.8535 28.1937 27.8535 28.192 27.8535 28.1912C27.8535 28.1929 27.8535 28.1929 27.8535 28.1953ZM27.8535 28.1668C27.8535 28.1652 27.8535 28.1644 27.8535 28.1636C27.8535 28.1652 27.8535 28.1652 27.8535 28.1668ZM27.8527 28.1164C27.8527 28.1156 27.8527 28.1147 27.8527 28.1139V28.1164ZM27.8519 28.0887C27.8519 28.0887 27.8519 28.0887 27.8519 28.0879V28.0887ZM27.8511 28.0521C27.8511 28.0504 27.8511 28.0496 27.8511 28.048C27.8511 28.0488 27.8511 28.0504 27.8511 28.0521ZM27.8494 27.9862C27.8494 27.9862 27.8494 27.9845 27.8494 27.9837C27.8494 27.9845 27.8494 27.9853 27.8494 27.9862ZM27.8486 27.9609C27.8486 27.9601 27.8486 27.9601 27.8486 27.9585C27.8486 27.9593 27.8486 27.9601 27.8486 27.9609ZM27.8478 27.9089V27.9072C27.8478 27.908 27.8478 27.908 27.8478 27.9089ZM27.847 27.8958C27.847 27.8958 27.847 27.895 27.847 27.8942C27.847 27.895 27.847 27.895 27.847 27.8958ZM27.8438 27.8055C27.8438 27.8047 27.8438 27.8055 27.8438 27.8047V27.8055Z" fill="#F0A422"/>
<mask id="mask3_1151_397" style="mask-type:luminance" maskUnits="userSpaceOnUse" x="3" y="17" width="25" height="26">
<path d="M3.33203 17.4062H27.9147V42.255H3.33203V17.4062Z" fill="white"/>
</mask>
<g mask="url(#mask3_1151_397)">
<path d="M13.9196 42.2534C13.9147 42.2534 13.9115 42.2534 13.9074 42.2534C13.9066 42.2534 13.9042 42.2534 13.9034 42.2534C13.9009 42.2534 13.8985 42.2534 13.896 42.2534C13.8936 42.2534 13.892 42.2534 13.8911 42.2534C13.8887 42.2534 13.8863 42.2534 13.8838 42.2534C13.8814 42.2534 13.8806 42.2534 13.8789 42.2534C13.8765 42.2534 13.8741 42.2534 13.8716 42.2534C13.8708 42.2534 13.8684 42.2534 13.8667 42.2534C13.8643 42.2534 13.8627 42.2534 13.8602 42.2534C13.8578 42.2534 13.857 42.2534 13.8553 42.2534C13.8529 42.2534 13.8505 42.2534 13.848 42.2534C13.8472 42.2534 13.8448 42.2534 13.8431 42.2534C13.8407 42.2534 13.8391 42.2534 13.8366 42.2526C13.835 42.2526 13.8334 42.2526 13.8317 42.2526C13.8293 42.2526 13.8269 42.2526 13.8244 42.2526C13.8228 42.2526 13.8212 42.2526 13.8195 42.2526C13.8171 42.2526 13.8147 42.2526 13.8122 42.2526C13.8106 42.2526 13.809 42.2526 13.8081 42.2526C13.8049 42.2526 13.8016 42.2526 13.7984 42.2526C13.7976 42.2526 13.7968 42.2526 13.7959 42.2526C13.7919 42.2526 13.7886 42.2526 13.7837 42.2526C13.7837 42.2526 13.7829 42.2526 13.7821 42.2526C13.7788 42.2526 13.7756 42.2526 13.7723 42.2526C13.7707 42.2526 13.7699 42.2526 13.7683 42.2526C13.7658 42.2526 13.7634 42.2526 13.7609 42.2518C13.7593 42.2518 13.7585 42.2518 13.7561 42.2518C13.7536 42.2518 13.7512 42.2518 13.7487 42.2518C13.7479 42.2518 13.7455 42.2518 13.7447 42.2518C13.7422 42.2518 13.7398 42.2518 13.7365 42.2518C13.7349 42.2518 13.7341 42.2518 13.7325 42.2518C13.73 42.2518 13.7276 42.2518 13.7251 42.2518C13.7235 42.2518 13.7219 42.2518 13.7203 42.2518C13.7178 42.2518 13.7154 42.2518 13.7129 42.2518C13.7121 42.2518 13.7097 42.2518 13.7089 42.2518C13.7064 42.2518 13.704 42.2518 13.7015 42.2518C13.6991 42.2518 13.6983 42.2518 13.6967 42.2518C13.6942 42.2518 13.6918 42.2518 13.6885 42.2518C13.6877 42.2518 13.6861 42.2518 13.6853 42.2518C13.6812 42.2518 13.6779 42.2518 13.6747 42.2518C13.6739 42.2518 13.6739 42.2518 13.6739 42.2509C13.6657 42.2509 13.6576 42.2509 13.6495 42.2509C13.6486 42.2509 13.6478 42.2509 13.6478 42.2509C13.6446 42.2509 13.6405 42.2509 13.6372 42.2501C13.6364 42.2501 13.6356 42.2501 13.6348 42.2501C13.6324 42.2501 13.6283 42.2501 13.6259 42.2501C13.625 42.2501 13.6234 42.2501 13.6226 42.2501C13.6193 42.2501 13.6169 42.2501 13.6136 42.2501C13.612 42.2501 13.612 42.2501 13.6104 42.2501C13.6071 42.2493 13.6047 42.2493 13.6014 42.2493C13.6006 42.2493 13.599 42.2493 13.599 42.2493C13.5957 42.2493 13.5925 42.2493 13.5892 42.2493C13.5892 42.2493 13.5876 42.2493 13.5868 42.2493C13.5835 42.2493 13.5811 42.2493 13.577 42.2493C13.5762 42.2493 13.5762 42.2493 13.5746 42.2493C13.5713 42.2493 13.5673 42.2493 13.564 42.2493C13.5632 42.2493 13.5632 42.2493 13.5632 42.2493C13.5469 42.2485 13.5306 42.2477 13.5144 42.2469C13.5103 42.2469 13.5062 42.2469 13.503 42.2469C13.5022 42.2469 13.5022 42.2469 13.5013 42.2469C13.4973 42.2469 13.494 42.2469 13.4908 42.2469C13.49 42.2469 13.4891 42.2469 13.4891 42.2469C13.4859 42.2469 13.4818 42.2469 13.4786 42.2469C13.4777 42.2469 13.4777 42.2469 13.4769 42.2469C13.4737 42.2461 13.4696 42.2461 13.4664 42.2461C13.4655 42.2461 13.4655 42.2461 13.4655 42.2461C13.4615 42.2461 13.4574 42.2461 13.4541 42.2452C13.4533 42.2452 13.4533 42.2452 13.4533 42.2452C9.44059 42.1118 5.84531 40.2612 3.38281 37.4081L5.08849 35.6284C7.19456 38.1723 10.3748 39.7982 13.9196 39.7982C20.2419 39.7982 25.3964 34.647 25.3964 28.3434C25.3964 24.6147 23.6012 21.2929 20.8302 19.1958L22.5359 17.416C25.6381 19.8655 27.6806 23.5999 27.8426 27.8015C27.8426 27.8023 27.8426 27.8015 27.8426 27.8023C27.8434 27.8243 27.845 27.8446 27.845 27.8658C27.845 27.8666 27.845 27.8666 27.845 27.8674C27.845 27.8706 27.845 27.8747 27.845 27.878C27.845 27.8788 27.8458 27.8796 27.8458 27.8804C27.8458 27.8837 27.8458 27.8877 27.8458 27.891C27.8458 27.8918 27.8458 27.8926 27.8458 27.8926C27.8458 27.8959 27.8467 27.9008 27.8467 27.904V27.9056C27.8467 27.9178 27.8475 27.93 27.8475 27.9431C27.8475 27.9439 27.8475 27.9447 27.8475 27.9447C27.8475 27.9488 27.8475 27.952 27.8475 27.9553C27.8475 27.9569 27.8475 27.9569 27.8475 27.9577C27.8475 27.961 27.8483 27.965 27.8483 27.9675C27.8483 27.9691 27.8483 27.9699 27.8483 27.9699C27.8483 27.974 27.8483 27.9772 27.8483 27.9805C27.8483 27.9813 27.8483 27.9829 27.8483 27.9829C27.8483 27.987 27.8491 27.9903 27.8491 27.9951C27.8491 28.0033 27.8491 28.0114 27.8499 28.0212C27.8499 28.0212 27.8499 28.0212 27.8499 28.022C27.8499 28.0261 27.8499 28.0285 27.8499 28.0326C27.8499 28.0342 27.8499 28.035 27.8499 28.0367C27.8499 28.0391 27.8499 28.0415 27.8499 28.0448C27.8499 28.0464 27.8499 28.0472 27.8499 28.0489C27.8499 28.0521 27.8499 28.0546 27.8499 28.057C27.8499 28.0586 27.8499 28.0594 27.8499 28.0611C27.8499 28.0643 27.8507 28.0676 27.8507 28.07C27.8507 28.0716 27.8507 28.0725 27.8507 28.0733C27.8507 28.0773 27.8507 28.0806 27.8507 28.0847C27.8507 28.0855 27.8507 28.0855 27.8507 28.0855C27.8507 28.0904 27.8507 28.0936 27.8507 28.0977C27.8507 28.0985 27.8515 28.0993 27.8515 28.1001C27.8515 28.1034 27.8515 28.1066 27.8515 28.1107C27.8515 28.1115 27.8515 28.1123 27.8515 28.1131C27.8515 28.1164 27.8515 28.1197 27.8515 28.1229C27.8515 28.1237 27.8515 28.1254 27.8515 28.1262C27.8515 28.1286 27.8515 28.1319 27.8515 28.1343C27.8515 28.1359 27.8515 28.1376 27.8524 28.1392C27.8524 28.1416 27.8524 28.1441 27.8524 28.1473C27.8524 28.149 27.8524 28.1498 27.8524 28.1514C27.8524 28.1538 27.8524 28.1571 27.8524 28.1603C27.8524 28.1612 27.8524 28.162 27.8524 28.1636C27.8524 28.1717 27.8524 28.1799 27.8524 28.188C27.8524 28.1888 27.8524 28.1905 27.8524 28.1921C27.8524 28.1945 27.8524 28.1978 27.8524 28.2002C27.8524 28.2018 27.8524 28.2027 27.8524 28.2051C27.8524 28.2067 27.8524 28.21 27.8524 28.2124C27.8524 28.2141 27.8524 28.2157 27.8524 28.2173C27.8524 28.2198 27.8524 28.2222 27.8524 28.2246C27.8524 28.2254 27.8524 28.2279 27.8524 28.2287C27.8524 28.232 27.8524 28.2344 27.8524 28.2368C27.8524 28.2385 27.8524 28.2401 27.8524 28.2409C27.8524 28.2442 27.8524 28.2482 27.8524 28.2507C27.8524 28.2515 27.8524 28.2531 27.8524 28.2539C27.8524 28.258 27.8532 28.2613 27.8532 28.2661C27.8532 28.267 27.8532 28.2678 27.8532 28.2694C27.8532 28.2718 27.8532 28.2743 27.8532 28.2775C27.8532 28.2792 27.8532 28.2816 27.8532 28.2824C27.8532 28.2849 27.8532 28.2873 27.8532 28.2897C27.8532 28.2914 27.8532 28.2938 27.8532 28.2946C27.8532 28.2971 27.8532 28.2995 27.8532 28.3019C27.8532 28.3044 27.8532 28.3052 27.8532 28.3076C27.8532 28.3101 27.8532 28.3125 27.8532 28.315C27.8532 28.3166 27.8532 28.3174 27.8532 28.3198C27.8532 28.3223 27.8532 28.3255 27.8532 28.328C27.8532 28.3288 27.8532 28.3304 27.8532 28.3321C27.8532 28.3353 27.8532 28.3402 27.8532 28.3434C27.8532 28.3784 27.8532 28.4134 27.8524 28.4476C27.8507 28.6909 27.8426 28.931 27.8288 29.1702C27.7457 30.5675 27.4544 31.9111 26.984 33.1708C26.8962 33.406 26.8018 33.6387 26.7017 33.8674C26.0832 35.285 25.2336 36.5822 24.2025 37.7092C21.6514 40.4981 17.9828 42.2534 13.9196 42.2534Z" fill="#F0A422"/>
</g>
<path d="M13.9171 39.8017C10.3722 39.8017 7.192 38.1757 5.08594 35.6319L5.54084 35.1566C7.52809 37.5898 10.5497 39.1507 13.9171 39.1507C19.8756 39.1507 24.7273 34.2867 24.7273 28.3469C24.7273 24.8053 23.0102 21.6544 20.3646 19.6826L20.8277 19.1992C23.5986 21.2963 25.3938 24.6182 25.3938 28.3469C25.3938 34.6504 20.2393 39.8017 13.9171 39.8017Z" fill="#ECC650"/>
<path d="M13.9192 39.1477C10.5518 39.1477 7.53022 37.5869 5.54297 35.1537L11.6243 28.8062C12.2477 29.2579 13.0371 29.5264 13.9037 29.5264C14.4034 29.5264 14.8127 29.9203 14.8127 30.3752C14.8127 30.8293 14.4034 31.193 13.9037 31.193C13.4179 31.193 13.0094 30.8293 13.0094 30.3605H10.2198C10.2198 31.9206 11.2655 33.1778 12.736 33.6173V34.5564H15.2383V33.5563C16.6177 33.0721 17.6032 31.8595 17.6032 30.4053C17.6032 29.5866 17.3151 28.8599 16.7992 28.2683C16.1327 27.4814 15.0707 26.9663 13.9037 26.9663C13.7524 26.9663 13.6092 26.9296 13.483 26.8654L14.6443 25.6528C14.7509 25.7887 14.8127 25.9547 14.8127 26.1321H17.6032C17.6032 25.1873 17.1776 24.3337 16.4948 23.7209L20.3668 19.6797C23.0124 21.6515 24.7294 24.8024 24.7294 28.344C24.7294 34.2838 19.8777 39.1477 13.9192 39.1477Z" fill="#F0A422"/>
<path d="M15.2373 34.5581H12.735V33.619C11.2645 33.1796 10.2188 31.9223 10.2188 30.3623H13.0084C13.0084 30.831 13.4169 31.1948 13.9027 31.1948C14.4024 31.1948 14.8117 30.831 14.8117 30.3769C14.8117 29.922 14.4024 29.5282 13.9027 29.5282C13.0361 29.5282 12.2467 29.2596 11.6233 28.808L13.482 26.8671C13.6081 26.9314 13.7514 26.968 13.9027 26.968C15.0697 26.968 16.1317 27.4831 16.7982 28.2701C17.3141 28.8617 17.6022 29.5884 17.6022 30.407C17.6022 31.8613 16.6167 33.0738 15.2373 33.558V34.5581ZM17.6022 26.1339H14.8117C14.8117 25.9565 14.7499 25.7905 14.6433 25.6546L16.4938 23.7227C17.1766 24.3354 17.6022 25.1891 17.6022 26.1339Z" fill="#ECC650"/>
</svg>
