<svg xmlns="http://www.w3.org/2000/svg" width="63" height="63" viewBox="0 0 63 63">
  <g id="media-play-circle-svgrepo-com" transform="translate(-1 -1)">
    <path id="Path_49762" data-name="Path 49762" d="M13,6.9A3.268,3.268,0,0,0,8,9.673V27.529A3.268,3.268,0,0,0,13,30.3l14.285-8.928a3.268,3.268,0,0,0,0-5.543Zm-.643,18.662V11.638L23.5,18.6Z" transform="translate(16.045 13.899)" fill="#fff" fill-rule="evenodd"/>
    <path id="Path_49763" data-name="Path 49763" d="M32.5,1A31.5,31.5,0,1,0,64,32.5,31.5,31.5,0,0,0,32.5,1ZM6.727,32.5A25.773,25.773,0,1,1,32.5,58.273,25.773,25.773,0,0,1,6.727,32.5Z" fill="#fff" fill-rule="evenodd"/>
  </g>
</svg>
