<svg width="59" height="59" viewBox="0 0 59 59" fill="none" xmlns="http://www.w3.org/2000/svg">
<path opacity="0.4" d="M29.7958 31.4166C29.6237 31.392 29.4025 31.392 29.2058 31.4166C24.8792 31.2691 21.4375 27.7291 21.4375 23.3778C21.4375 18.9282 25.0267 15.3145 29.5008 15.3145C33.9504 15.3145 37.5642 18.9282 37.5642 23.3778C37.5396 27.7291 34.1225 31.2691 29.7958 31.4166Z" stroke="#54595F" stroke-width="1.5" stroke-linecap="round" stroke-linejoin="round"/>
<path opacity="0.34" d="M46.0681 47.6434C41.6923 51.6505 35.8906 54.0843 29.4989 54.0843C23.1072 54.0843 17.3055 51.6505 12.9297 47.6434C13.1755 45.3326 14.6505 43.0709 17.2809 41.3009C24.0168 36.8268 35.0302 36.8268 41.7168 41.3009C44.3473 43.0709 45.8223 45.3326 46.0681 47.6434Z" stroke="#54595F" stroke-width="1.5" stroke-linecap="round" stroke-linejoin="round"/>
<path d="M29.4974 54.0827C43.0743 54.0827 54.0807 43.0762 54.0807 29.4993C54.0807 15.9223 43.0743 4.91602 29.4974 4.91602C15.9204 4.91602 4.91406 15.9223 4.91406 29.4993C4.91406 43.0762 15.9204 54.0827 29.4974 54.0827Z" stroke="#54595F" stroke-width="1.5" stroke-linecap="round" stroke-linejoin="round"/>
</svg>
