<svg width="49" height="37" viewBox="0 0 49 37" fill="none" xmlns="http://www.w3.org/2000/svg">
<path d="M35.7077 3.13073C35.3911 1.83385 34.4635 0.772413 33.2212 0.284109C31.9788 -0.203808 30.5768 -0.0572348 29.4625 0.67723L13.4562 10.9817L3.15176 13.4351C2.09471 13.6873 1.18101 14.348 0.610626 15.2732C0.0402615 16.1981 -0.139766 17.3113 0.109566 18.3687L1.59956 24.614H1.59916C1.84252 25.6755 2.50568 26.5927 3.43726 27.1568C3.74395 27.3472 4.07374 27.4969 4.41866 27.6029C5.10374 27.8036 5.82943 27.8219 6.52401 27.6566L6.77374 28.7006V28.7002C7.23218 30.6287 8.00046 32.4697 9.04875 34.1516L9.61075 35.0438H9.61114C9.92898 35.5712 10.4312 35.9623 11.0207 36.1412C11.4421 36.2483 11.8838 36.2483 12.3052 36.1412L15.2582 35.4362H15.2586C16.0397 35.2502 16.6833 34.7001 16.9892 33.9577C17.2951 33.2153 17.2254 32.3712 16.802 31.689C15.8585 30.1679 15.1658 28.5054 14.75 26.7645L14.4824 25.756L16.8554 25.194L35.6799 25.9523C36.9764 26.0336 38.2342 25.4947 39.0698 24.5006C39.9058 23.5064 40.2204 22.1746 39.9177 20.9116L35.7077 3.13073ZM4.37431 25.6402C3.85095 25.3176 3.47575 24.8014 3.3304 24.204L1.84959 17.9587C1.73926 17.5022 1.77152 17.0235 1.94239 16.5862C2.11326 16.1492 2.41397 15.7748 2.8039 15.5139L3.99963 20.546C4.07292 20.8579 4.30791 21.1064 4.6154 21.1972C4.76675 21.2418 4.92766 21.2418 5.07902 21.1972C5.55618 21.0825 5.85091 20.6042 5.73939 20.1266L4.49911 14.9432L13.1445 12.8912L14.4295 18.2443L15.7052 23.5974L13.2251 24.1952L7.06023 25.6586L6.6946 24.106L6.6942 24.1056C6.57949 23.6288 6.10114 23.3337 5.62358 23.4456C5.387 23.4982 5.18188 23.6448 5.05562 23.8519C4.92935 24.059 4.89271 24.3083 4.95445 24.5429L5.2934 25.9437C4.96998 25.9043 4.65771 25.8011 4.37453 25.6402L4.37431 25.6402ZM13.0193 27.2194C13.4761 29.1496 14.2412 30.9933 15.2856 32.6797C15.4091 32.8717 15.429 33.1123 15.339 33.3222C15.253 33.5329 15.0702 33.689 14.8483 33.7412L11.8953 34.4462C11.599 34.519 11.2891 34.3932 11.1282 34.1339L10.5662 33.2417H10.5658C9.62029 31.7218 8.92729 30.0585 8.51382 28.3168L8.23741 27.2194L9.85211 26.8359L12.743 26.14L13.0193 27.2194ZM37.7241 23.3651C37.2489 23.9299 36.5331 24.2346 35.7972 24.186L17.5161 23.4456L14.8396 12.2306L30.4084 2.23815C31.0397 1.81038 31.8403 1.71837 32.552 1.9924C33.2633 2.26643 33.7958 2.87144 33.9771 3.6123L38.2063 21.3662C38.3612 22.068 38.1836 22.8025 37.7243 23.3557L37.7241 23.3651Z" fill="#54595F"/>
<path d="M40.8849 10.9915C40.9992 11.4687 41.4776 11.7634 41.9556 11.6519L46.7466 10.51H46.7462C47.227 10.3965 47.5245 9.91535 47.411 9.43499C47.2979 8.95426 46.8163 8.65673 46.336 8.77024L41.5449 9.91213C41.3139 9.9671 41.1143 10.1121 40.9905 10.3144C40.8666 10.5171 40.8284 10.7609 40.8849 10.9915Z" fill="#54595F"/>
<path d="M40.1894 6.93926C40.2555 6.98268 40.3276 7.01573 40.4037 7.03724C40.7896 7.14836 41.2027 6.98785 41.4118 6.64492L43.9991 2.45166C44.2536 2.03225 44.1222 1.4866 43.7048 1.22932C43.5028 1.10425 43.2591 1.06482 43.0281 1.12019C42.7966 1.17555 42.5971 1.32094 42.4736 1.52366L39.8951 5.71691C39.641 6.13592 39.7724 6.68199 40.1894 6.93926Z" fill="#54595F"/>
<path d="M47.5497 17.4064L43.3564 14.8279C43.1556 14.6594 42.8904 14.5877 42.6315 14.6319C42.373 14.6765 42.1472 14.8327 42.0137 15.0589C41.8807 15.2851 41.854 15.5588 41.9408 15.8065C42.0277 16.0542 42.2193 16.251 42.4642 16.3446L46.6575 18.9319C46.724 18.9725 46.7965 19.0024 46.8718 19.0211C47.2983 19.1398 47.7476 18.9275 47.9265 18.5225C48.1057 18.1174 47.9603 17.6422 47.5855 17.4065L47.5497 17.4064Z" fill="#54595F"/>
<path d="M6.21904 26.7109C5.79645 26.7224 5.42364 26.4353 5.32685 26.0238L2.96252 16.1385C2.93703 15.7088 3.22181 15.3224 3.63962 15.2193C4.05783 15.1165 4.48958 15.3268 4.66639 15.7191L7.05734 25.6044V25.6048C7.17842 26.0692 6.91037 26.546 6.45074 26.6842C6.37506 26.7033 6.2971 26.7121 6.21904 26.7109Z" fill="#54595F"/>
</svg>
