<svg width="45" height="63" viewBox="0 0 45 63" fill="none" xmlns="http://www.w3.org/2000/svg">
<path d="M35.9477 51.8047C32.0492 54.1835 27.4238 55.5714 22.4677 55.5714C17.5115 55.5714 12.8864 54.1835 8.98759 51.8047L4.62628 60.1968C4.03168 61.386 4.8904 62.7739 6.14597 62.7739H38.7228C40.0442 62.7739 40.9034 61.386 40.2425 60.1968L35.9477 51.8047Z" fill="#54595F"/>
<path d="M18.77 13.4129L14.805 8.45703C12.1621 9.38211 9.78317 10.8359 7.73438 12.6201L11.8975 16.7832C13.8799 15.1307 16.1928 14.0075 18.7699 13.4129H18.77Z" fill="#54595F"/>
<path d="M26.168 13.4133C28.745 14.0079 31.0579 15.1312 33.0399 16.7832L37.203 12.6201C35.1547 10.8359 32.7757 9.38213 30.1323 8.45703L26.168 13.4133Z" fill="#54595F"/>
<path d="M9.58129 40.3076C7.53297 37.7965 6.2114 34.7571 5.881 31.3867H0C0.330488 36.4086 2.31299 40.968 5.41869 44.5364L9.58129 40.3076Z" fill="#54595F"/>
<path d="M9.58177 19.0967L5.41869 14.9336C2.31299 18.5016 0.330512 23.0612 0 28.0172H5.881C6.14558 24.6473 7.53344 21.608 9.58177 19.0968V19.0967Z" fill="#54595F"/>
<path d="M39.1187 28.0172H44.9997C44.6033 22.9953 42.6867 18.5017 39.581 14.9336L35.418 19.0967C37.4004 21.6073 38.7882 24.6467 39.1187 28.0171V28.0172Z" fill="#54595F"/>
<path d="M7.73438 46.7837C11.3024 49.8894 15.8619 51.8719 20.818 52.2024V46.3214C17.4481 45.9909 14.3424 44.6694 11.8971 42.6211L7.73438 46.7837Z" fill="#54595F"/>
<path d="M35.3516 40.3069L39.5146 44.47C42.6203 40.902 44.6028 36.3424 44.9333 31.3203H39.0523C38.7877 34.6902 37.3999 37.7959 35.3516 40.307V40.3069Z" fill="#54595F"/>
<path d="M24.1174 52.2024C29.1393 51.806 33.6987 49.8894 37.2671 46.7837L33.0381 42.6211C30.5269 44.6694 27.4876 45.991 24.1172 46.3214L24.1174 52.2024Z" fill="#54595F"/>
<path d="M21.7398 11.8279C22.1362 12.2906 22.8631 12.2906 23.2595 11.8279L31.4534 1.58601C31.9821 0.925031 31.5193 0 30.7265 0H14.2068C13.414 0 12.9512 0.925078 13.4799 1.58601L21.7398 11.8279Z" fill="#54595F"/>
<path d="M22.4687 16.2559C15.068 16.2559 9.05469 22.2691 9.05469 29.6698C9.05469 37.0705 15.068 43.0838 22.4687 43.0838C29.8694 43.0838 35.8826 37.0705 35.8826 29.6698C35.8826 22.2687 29.8694 16.2559 22.4687 16.2559ZM29.8034 28.15L26.8958 30.8594C26.7635 30.9917 26.6976 31.1235 26.7635 31.3221L27.5563 35.2207C27.6886 35.9476 26.8954 36.5421 26.2349 36.2117L22.7987 34.2292C22.6664 34.1633 22.4682 34.1633 22.3359 34.2292L18.8997 36.2117C18.2387 36.6081 17.446 36.0135 17.5782 35.2207L18.371 31.3221C18.4369 31.1239 18.371 30.9917 18.2387 30.8594L15.3312 28.15C14.7366 27.6213 15.067 26.6963 15.8598 26.564L19.8248 26.1012C20.023 26.1012 20.1553 25.969 20.2212 25.8371L21.8732 22.2027C22.2037 21.4758 23.1946 21.4758 23.5251 22.2027L25.1771 25.8371C25.243 25.9694 25.3753 26.1012 25.5735 26.1012L29.5385 26.564C30.0017 26.6963 30.3321 27.6214 29.8034 28.15Z" fill="#54595F"/>
</svg>
