<svg width="23" height="23" viewBox="0 0 23 23" fill="none" xmlns="http://www.w3.org/2000/svg">
<path d="M11.5 0C5.14769 0 0 5.14769 0 11.5C0 17.8523 5.14769 23 11.5 23C17.8523 23 23 17.8523 23 11.5C23 5.14769 17.8523 0 11.5 0ZM17.6007 17.6007C15.9692 19.2266 13.8043 20.125 11.5 20.125C9.19569 20.125 7.03081 19.2266 5.39925 17.6007C3.77344 15.9692 2.875 13.8043 2.875 11.5C2.875 9.19569 3.77344 7.03081 5.39925 5.39925C7.03081 3.77344 9.19569 2.875 11.5 2.875C13.8043 2.875 15.9692 3.77344 17.6007 5.39925C19.2266 7.03081 20.125 9.19569 20.125 11.5C20.125 13.8043 19.2266 15.9692 17.6007 17.6007ZM15.502 7.06675L10.0855 13.0856L7.56413 10.5972L5.543 12.6414L10.2063 17.25L17.6367 8.98869L15.502 7.06675Z" fill="#80B918"/>
</svg>
