<svg width="47" height="56" viewBox="0 0 47 56" fill="none" xmlns="http://www.w3.org/2000/svg">
<path d="M33.9113 33.0639C28.4973 33.0639 24.095 37.4722 24.095 42.8935C24.095 48.3148 28.4977 52.7231 33.9113 52.7231C39.3253 52.7231 43.7275 48.3148 43.7275 42.8935C43.7275 37.4722 39.3252 33.0639 33.9113 33.0639ZM33.9113 50.9363C29.5086 50.9363 25.8794 47.3022 25.8794 42.8935C25.8794 38.4848 29.5085 34.8507 33.9113 34.8507C38.314 34.8507 41.9431 38.4848 41.9431 42.8935C41.9431 47.3022 38.314 50.9363 33.9113 50.9363ZM37.5404 40.7488C37.8973 41.1062 37.8973 41.6423 37.5404 42.0001C37.1835 42.3575 36.6482 42.3575 36.2908 42.0001L34.8035 40.5702V47.3617C34.8035 47.8384 34.3868 48.2552 33.9112 48.2552C33.4352 48.2552 33.019 47.8383 33.019 47.3617V40.5702L31.5911 42.0001C31.2342 42.3575 30.6988 42.3575 30.3415 42.0001C30.163 41.8214 30.1037 41.5829 30.1037 41.3448C30.1037 41.1067 30.163 40.8681 30.3415 40.6894L33.3162 37.7107C33.4946 37.532 33.6731 37.4726 33.9113 37.4726H34.0897C34.2682 37.4726 34.4466 37.5919 34.5657 37.7107L34.6251 37.7701L37.5404 40.7488ZM31.1151 2.97862C31.7695 2.97862 32.3049 3.51469 32.3049 4.17C32.3049 4.82531 31.7695 5.36138 31.1151 5.36138H4.87838C4.22392 5.36138 3.68861 4.82531 3.68861 4.17C3.68861 3.51469 4.22396 2.97862 4.87838 2.97862H31.1151ZM35.1012 29.8467V7.14883C35.1012 6.49349 34.5658 5.95745 33.9114 5.95745H4.46203C3.33154 5.95745 2.37954 5.18285 2.37954 4.17011C2.37954 3.15736 3.33153 2.38277 4.46203 2.38277H33.9114C34.5658 2.38277 35.1012 1.84669 35.1012 1.19138C35.1012 0.536074 34.5658 0 33.9114 0H4.46203C2.02268 0 0 1.8467 0 4.17011V39.319C0 41.9404 2.32025 44.0851 5.11646 44.0851H20.8823C21.4774 50.7573 27.0694 56 33.9114 56C41.1103 56 47 50.102 47 42.8936C47 36.0428 41.7649 30.4426 35.1013 29.8468L35.1012 29.8467ZM2.37964 39.3189V7.86362C2.97475 8.16158 3.6885 8.34027 4.46213 8.34027H32.7216V29.8467C29.1518 30.1446 25.9987 31.932 23.857 34.5528V26.3912C23.857 25.8552 23.4403 25.4379 22.905 25.4379V18.6465C23.5594 18.587 24.0947 18.0505 24.0947 17.3952L24.0951 10.6041H23.4407V16.1443H23.0838V10.6041H22.3103V16.1443H21.9534V10.6041H21.1798V16.1443H20.8229V10.6041H20.0494V16.1443H19.6925V10.6041H19.038V17.3956C19.038 18.1104 19.5734 18.6469 20.2876 18.6469V25.4384C19.7523 25.4384 19.3356 25.8556 19.3356 26.3917V39.1406C19.3356 39.7959 19.871 40.332 20.5254 40.332H21.0014C20.942 40.7492 20.8229 41.2254 20.8229 41.6426L5.1166 41.6422C3.62925 41.702 2.37967 40.6295 2.37967 39.3188L2.37964 39.3189ZM33.9113 53.6168C28.0213 53.6168 23.2024 48.7914 23.2024 42.8934C23.2024 36.9954 28.0213 32.17 33.9113 32.17C39.8013 32.17 44.6201 36.9954 44.6201 42.8934C44.6201 48.7914 39.8013 53.6168 33.9113 53.6168ZM15.4682 26.3913V39.1402C15.4682 39.7956 14.9329 40.3316 14.2785 40.3316L12.1964 40.332C11.542 40.332 11.0066 39.7959 11.0066 39.1406L11.0062 26.4513C11.0062 25.9152 11.4229 25.498 11.9582 25.498V10.6044C13.8024 10.6044 15.3496 12.1532 15.3496 14.0003V21.8045C15.3496 22.2811 14.9927 22.6385 14.5167 22.6385V25.498C15.052 25.498 15.4683 25.9148 15.4683 26.3914L15.4682 26.3913Z" fill="#54595F"/>
</svg>
