<svg width="27" height="25" viewBox="0 0 27 25" fill="none" xmlns="http://www.w3.org/2000/svg">
<path d="M22.7829 25.0006H4.39869C3.88621 24.9804 3.38286 24.8627 2.91747 24.6541C2.45209 24.4457 2.03379 24.1506 1.68651 23.7857C1.33924 23.4208 1.0698 22.9933 0.893627 22.5277C0.717454 22.062 0.637976 21.5674 0.659774 21.072V16.7863C0.659774 16.5021 0.776553 16.2296 0.98441 16.0287C1.19228 15.8277 1.47419 15.7148 1.76815 15.7148C2.06212 15.7148 2.34403 15.8277 2.55189 16.0287C2.75976 16.2296 2.87652 16.5021 2.87652 16.7863V21.072C2.83838 21.4961 2.97059 21.9183 3.24574 22.2507C3.52089 22.5833 3.91788 22.8006 4.35435 22.8577H22.7829C23.2195 22.8006 23.6164 22.5833 23.8916 22.2507C24.1668 21.9183 24.2989 21.4961 24.2607 21.072V16.7863C24.2607 16.5021 24.3775 16.2296 24.5854 16.0287C24.7932 15.8277 25.0752 15.7148 25.3691 15.7148C25.6631 15.7148 25.945 15.8277 26.1528 16.0287C26.3607 16.2296 26.4775 16.5021 26.4775 16.7863V21.072C26.5218 22.0654 26.1584 23.0354 25.4665 23.7711C24.7746 24.507 23.8102 24.9487 22.7829 25.0006Z" fill="#54595F"/>
<path d="M19.501 7.85619C19.3555 7.85687 19.2111 7.82941 19.0766 7.77544C18.9421 7.72147 18.8201 7.64207 18.7178 7.54191L13.5897 2.58477L8.46164 7.54191C8.25152 7.73117 7.97363 7.83419 7.68649 7.82931C7.39934 7.82441 7.12537 7.71195 6.9223 7.51565C6.71922 7.31935 6.6029 7.05451 6.59783 6.77694C6.59277 6.49937 6.69936 6.23074 6.89514 6.02763L12.8065 0.313342C13.0142 0.1127 13.2959 0 13.5897 0C13.8834 0 14.1652 0.1127 14.373 0.313342L20.2843 6.02763C20.4919 6.22853 20.6084 6.50084 20.6084 6.78477C20.6084 7.0687 20.4919 7.34101 20.2843 7.54191C20.182 7.64207 20.06 7.72147 19.9255 7.77544C19.791 7.82941 19.6466 7.85687 19.501 7.85619Z" fill="#54595F"/>
<path d="M13.5888 17.8571C13.2961 17.8534 13.0163 17.7394 12.8093 17.5393C12.6022 17.3391 12.4843 17.0687 12.4805 16.7857V1.07143C12.4805 0.787271 12.5972 0.514743 12.8051 0.313814C13.0129 0.112886 13.2949 0 13.5888 0C13.8828 0 14.1648 0.112886 14.3725 0.313814C14.5805 0.514743 14.6972 0.787271 14.6972 1.07143V16.7857C14.6934 17.0687 14.5754 17.3391 14.3684 17.5393C14.1614 17.7394 13.8816 17.8534 13.5888 17.8571Z" fill="#54595F"/>
</svg>
