<svg width="47" height="44" viewBox="0 0 47 44" fill="none" xmlns="http://www.w3.org/2000/svg">
<path d="M19.4548 1.23382C18.6599 1.98018 13.8904 9.89155 8.90411 18.7732C-1.06847 36.7604 -1.50206 38.1784 1.96666 41.8356L4.06235 44H22.9958C39.6167 44 42.2183 43.8507 44.0249 42.7312C48.5776 39.895 48.0718 36.4618 41.3511 24.4455C38.2437 18.9971 34.3414 11.9067 32.607 8.77201C30.8727 5.63732 28.6325 2.35336 27.5485 1.45773C25.236 -0.408161 21.4782 -0.482796 19.4548 1.23382ZM26.0309 4.9656C27.4762 6.75685 32.3902 15.5639 32.3902 16.4595C32.3902 17.2058 15.5525 17.4297 14.8298 16.6834C14.4685 16.3102 17.1423 11.0111 20.5388 5.33878C21.7673 3.39825 24.5134 3.17435 26.0309 4.9656ZM36.6539 23.4006C37.5211 24.744 38.1714 26.2367 38.1714 26.7592C38.1714 27.3563 33.9078 27.5802 23.3571 27.5802C15.1912 27.5802 8.54278 27.3563 8.54278 26.9831C8.54278 26.6845 9.3377 25.1918 10.3494 23.6245L12.2283 20.863H23.7184H35.1363L36.6539 23.4006ZM41.7124 33.2525C43.5913 35.7155 43.6636 38.477 41.857 39.5219C40.9898 39.9697 33.691 40.2682 23.1403 40.2682C6.88068 40.2682 5.79671 40.1936 4.5682 38.7755C3.48423 37.5067 3.41196 36.9843 4.20688 35.0437C4.71273 33.7749 5.65218 32.4315 6.30256 32.0583C6.95295 31.6851 14.8298 31.312 23.863 31.312H40.2671L41.7124 33.2525Z" fill="#54595F"/>
</svg>
