<svg width="422" height="326" viewBox="0 0 422 326" fill="none" xmlns="http://www.w3.org/2000/svg">
<mask id="mask0_1471_358" style="mask-type:luminance" maskUnits="userSpaceOnUse" x="310" y="304" width="23" height="22">
<path d="M310.334 304.051H333.001V325.999H310.334V304.051Z" fill="white"/>
</mask>
<g mask="url(#mask0_1471_358)">
<path d="M315.063 325.89C321.292 318.921 327.209 311.812 332.803 304.588C325.631 306.911 318.417 309.031 311.162 310.942C312.459 315.926 313.761 320.906 315.063 325.89Z" fill="#E3E4E0"/>
</g>
<mask id="mask1_1471_358" style="mask-type:luminance" maskUnits="userSpaceOnUse" x="85" y="304" width="23" height="22">
<path d="M85 304.051H107.667V325.999H85V304.051Z" fill="white"/>
</mask>
<g mask="url(#mask1_1471_358)">
<path d="M102.937 325.884C96.7025 318.921 90.791 311.811 85.1973 304.582C92.3639 306.91 99.5827 309.03 106.838 310.941C105.536 315.926 104.239 320.905 102.937 325.884Z" fill="#E3E4E0"/>
</g>
<mask id="mask2_1471_358" style="mask-type:luminance" maskUnits="userSpaceOnUse" x="301" y="258" width="68" height="68">
<path d="M301 258.719H369V326H301V258.719Z" fill="white"/>
</mask>
<g mask="url(#mask2_1471_358)">
<path d="M348.954 259.037C333.516 265.459 317.751 270.777 301.771 274.99C306.204 291.954 310.636 308.923 315.063 325.891C333.329 321.079 351.355 315.001 369.001 307.657C361.61 301.235 354.454 294.646 347.532 287.896C348.282 278.235 348.751 268.61 348.954 259.037Z" fill="#753192"/>
</g>
<mask id="mask3_1471_358" style="mask-type:luminance" maskUnits="userSpaceOnUse" x="49" y="258" width="68" height="68">
<path d="M49 258.719H117V326H49V258.719Z" fill="white"/>
</mask>
<g mask="url(#mask3_1471_358)">
<path d="M69.0469 259.037C84.4792 265.459 100.245 270.777 116.224 274.99C111.797 291.954 107.365 308.923 102.938 325.891C84.6719 321.079 66.6458 315.001 49 307.652C56.3906 301.235 63.5469 294.646 70.4688 287.896C69.7188 278.235 69.25 268.61 69.0469 259.037Z" fill="#753192"/>
</g>
<mask id="mask4_1471_358" style="mask-type:luminance" maskUnits="userSpaceOnUse" x="85" y="254" width="248" height="71">
<path d="M85 254H333V324.052H85V254Z" fill="white"/>
</mask>
<g mask="url(#mask4_1471_358)">
<path d="M101.426 254.109C96.0618 270.802 90.6921 287.495 85.3223 304.188C165.713 330.281 252.281 330.281 332.671 304.188C327.301 287.495 321.937 270.802 316.567 254.115C246.645 276.807 171.348 276.802 101.426 254.109Z" fill="#973594"/>
</g>
<path d="M138.344 278.083L143.32 279.473L145.586 289.861L145.791 289.918L153.11 282.205L158.086 283.595L146.629 295.041L144.555 302.47L140.143 301.238L142.216 293.809L138.344 278.083Z" fill="white"/>
<path d="M181.806 299.008C181.407 301.353 180.623 303.273 179.454 304.767C178.292 306.262 176.873 307.314 175.199 307.923C173.533 308.526 171.752 308.666 169.854 308.343C167.943 308.018 166.301 307.292 164.93 306.165C163.558 305.038 162.571 303.577 161.969 301.782C161.367 299.986 161.264 297.919 161.662 295.581C162.061 293.235 162.842 291.315 164.004 289.819C165.166 288.324 166.58 287.275 168.246 286.672C169.913 286.063 171.702 285.92 173.614 286.245C175.511 286.568 177.146 287.293 178.517 288.42C179.897 289.541 180.888 290.999 181.491 292.794C182.1 294.591 182.205 296.662 181.806 299.008ZM177.195 298.223C177.454 296.704 177.444 295.384 177.167 294.263C176.896 293.144 176.397 292.245 175.67 291.566C174.942 290.888 174.029 290.455 172.929 290.268C171.83 290.081 170.825 290.187 169.914 290.587C169.003 290.987 168.232 291.67 167.599 292.635C166.973 293.602 166.531 294.846 166.273 296.365C166.014 297.884 166.02 299.204 166.291 300.323C166.569 301.444 167.071 302.343 167.799 303.022C168.526 303.7 169.439 304.133 170.539 304.32C171.638 304.507 172.643 304.401 173.554 304.001C174.465 303.601 175.233 302.918 175.859 301.951C176.491 300.985 176.937 299.743 177.195 298.223Z" fill="white"/>
<path d="M204.137 289.909L208.74 290.207L207.823 304.347C207.72 305.934 207.25 307.299 206.415 308.44C205.586 309.582 204.473 310.442 203.076 311.021C201.68 311.592 200.082 311.819 198.281 311.702C196.474 311.585 194.915 311.153 193.604 310.406C192.294 309.652 191.302 308.655 190.628 307.415C189.954 306.176 189.668 304.763 189.771 303.175L190.689 289.036L195.292 289.334L194.4 303.08C194.346 303.91 194.479 304.658 194.799 305.327C195.125 305.996 195.61 306.536 196.252 306.948C196.894 307.36 197.658 307.594 198.544 307.652C199.437 307.71 200.225 307.576 200.908 307.25C201.599 306.925 202.145 306.451 202.549 305.83C202.959 305.209 203.191 304.484 203.245 303.654L204.137 289.909Z" fill="white"/>
<path d="M233.777 311.555L225.426 290.453L230.441 289.959L235.52 304.692L235.701 304.675L238.18 289.197L242.474 288.775L247.917 303.504L248.108 303.485L250.214 288.013L255.228 287.519L251.154 309.844L246.679 310.284L241.147 296.495L240.977 296.512L238.251 311.114L233.777 311.555Z" fill="white"/>
<path d="M266.297 285.11L270.473 306.525L265.945 307.408L261.769 285.993L266.297 285.11Z" fill="white"/>
<path d="M291.726 278.691L297.554 299.716L293.714 300.78L280.899 290.082L280.745 290.125L284.413 303.358L279.968 304.59L274.14 283.565L278.041 282.484L290.782 293.191L290.967 293.14L287.302 279.917L291.726 278.691Z" fill="white"/>
<path fill-rule="evenodd" clip-rule="evenodd" d="M115.89 156.615C115.956 156.749 116.051 156.865 116.17 156.955C116.29 157.046 116.428 157.108 116.576 157.138L121.217 158.077C121.399 158.113 121.567 158.2 121.702 158.328C121.836 158.456 121.931 158.621 121.975 158.801C122.017 158.981 122.006 159.169 121.943 159.342C121.88 159.516 121.768 159.667 121.621 159.778L118.01 162.52C117.869 162.625 117.76 162.768 117.695 162.932C117.631 163.094 117.613 163.272 117.644 163.444L118.619 168.872C118.651 169.053 118.63 169.239 118.558 169.409C118.486 169.578 118.367 169.723 118.215 169.826C118.061 169.93 117.881 169.99 117.695 169.999C117.509 170.007 117.324 169.963 117.162 169.872L112.989 167.525C112.84 167.441 112.671 167.398 112.5 167.398C112.329 167.398 112.16 167.441 112.011 167.525L107.838 169.872C107.676 169.963 107.491 170.007 107.305 169.999C107.119 169.991 106.939 169.931 106.785 169.826C106.633 169.723 106.514 169.578 106.442 169.409C106.37 169.239 106.349 169.053 106.381 168.872L107.356 163.445C107.387 163.273 107.369 163.095 107.305 162.933C107.24 162.769 107.131 162.626 106.99 162.521L103.379 159.779C103.232 159.668 103.12 159.517 103.057 159.343C102.994 159.17 102.983 158.982 103.025 158.802C103.069 158.622 103.164 158.458 103.298 158.329C103.432 158.201 103.601 158.114 103.783 158.078L108.423 157.139C108.571 157.109 108.709 157.047 108.829 156.956C108.947 156.866 109.043 156.75 109.109 156.616L111.616 151.543C111.699 151.38 111.825 151.243 111.981 151.147C112.137 151.051 112.317 151 112.5 151C112.683 151 112.863 151.051 113.019 151.147C113.175 151.243 113.301 151.38 113.384 151.543L115.89 156.615Z" fill="#F9DA4B"/>
<path fill-rule="evenodd" clip-rule="evenodd" d="M172.89 96.6154C172.956 96.7488 173.051 96.865 173.17 96.955C173.29 97.0457 173.428 97.1083 173.576 97.1381L178.217 98.0775C178.399 98.113 178.567 98.2 178.702 98.3282C178.836 98.4565 178.931 98.6206 178.975 98.8011C179.017 98.9807 179.006 99.1688 178.943 99.3423C178.88 99.5158 178.768 99.6672 178.621 99.7781L175.01 102.52C174.869 102.625 174.76 102.768 174.695 102.932C174.631 103.094 174.613 103.272 174.644 103.444L175.619 108.872C175.651 109.053 175.63 109.239 175.558 109.409C175.486 109.578 175.367 109.723 175.215 109.826C175.061 109.93 174.881 109.99 174.695 109.999C174.509 110.007 174.324 109.963 174.162 109.872L169.989 107.525C169.84 107.441 169.671 107.398 169.5 107.398C169.329 107.398 169.16 107.441 169.011 107.525L164.838 109.872C164.676 109.963 164.491 110.007 164.305 109.999C164.119 109.991 163.939 109.931 163.785 109.826C163.633 109.723 163.514 109.578 163.442 109.409C163.37 109.239 163.349 109.053 163.381 108.872L164.356 103.445C164.387 103.273 164.369 103.095 164.305 102.933C164.24 102.769 164.131 102.626 163.99 102.521L160.379 99.7791C160.232 99.6682 160.12 99.5168 160.057 99.3433C159.994 99.1698 159.983 98.9817 160.025 98.802C160.069 98.6216 160.164 98.4575 160.298 98.3293C160.432 98.2011 160.601 98.114 160.783 98.0784L165.423 97.1391C165.571 97.1095 165.709 97.0469 165.829 96.956C165.947 96.8659 166.043 96.7496 166.109 96.6163L168.616 91.5432C168.699 91.3798 168.825 91.2425 168.981 91.1466C169.137 91.0507 169.317 91 169.5 91C169.683 91 169.863 91.0507 170.019 91.1466C170.175 91.2425 170.301 91.3798 170.384 91.5432L172.89 96.6154Z" fill="#F9DA4B"/>
<path fill-rule="evenodd" clip-rule="evenodd" d="M266.89 96.6154C266.956 96.7488 267.051 96.865 267.17 96.955C267.29 97.0457 267.428 97.1083 267.576 97.1381L272.217 98.0775C272.399 98.113 272.567 98.2 272.702 98.3282C272.836 98.4565 272.931 98.6206 272.975 98.8011C273.017 98.9807 273.006 99.1688 272.943 99.3423C272.88 99.5158 272.768 99.6672 272.621 99.7781L269.01 102.52C268.869 102.625 268.76 102.768 268.695 102.932C268.631 103.094 268.613 103.272 268.644 103.444L269.619 108.872C269.651 109.053 269.63 109.239 269.558 109.409C269.486 109.578 269.367 109.723 269.215 109.826C269.061 109.93 268.881 109.99 268.695 109.999C268.509 110.007 268.324 109.963 268.162 109.872L263.989 107.525C263.84 107.441 263.671 107.398 263.5 107.398C263.329 107.398 263.16 107.441 263.011 107.525L258.838 109.872C258.676 109.963 258.491 110.007 258.305 109.999C258.119 109.991 257.939 109.931 257.785 109.826C257.633 109.723 257.514 109.578 257.442 109.409C257.37 109.239 257.349 109.053 257.381 108.872L258.356 103.445C258.387 103.273 258.369 103.095 258.305 102.933C258.24 102.769 258.131 102.626 257.99 102.521L254.379 99.7791C254.232 99.6682 254.12 99.5168 254.057 99.3433C253.994 99.1698 253.983 98.9817 254.025 98.802C254.069 98.6216 254.164 98.4575 254.298 98.3293C254.432 98.2011 254.601 98.114 254.783 98.0784L259.423 97.1391C259.571 97.1095 259.709 97.0469 259.829 96.956C259.947 96.8659 260.043 96.7496 260.109 96.6163L262.616 91.5432C262.699 91.3798 262.825 91.2425 262.981 91.1466C263.137 91.0507 263.317 91 263.5 91C263.683 91 263.863 91.0507 264.019 91.1466C264.175 91.2425 264.301 91.3798 264.384 91.5432L266.89 96.6154Z" fill="#F9DA4B"/>
<path fill-rule="evenodd" clip-rule="evenodd" d="M336.89 137.615C336.956 137.749 337.051 137.865 337.17 137.955C337.29 138.046 337.428 138.108 337.576 138.138L342.217 139.077C342.399 139.113 342.567 139.2 342.702 139.328C342.836 139.456 342.931 139.621 342.975 139.801C343.017 139.981 343.006 140.169 342.943 140.342C342.88 140.516 342.768 140.667 342.621 140.778L339.01 143.52C338.869 143.625 338.76 143.768 338.695 143.932C338.631 144.094 338.613 144.272 338.644 144.444L339.619 149.872C339.651 150.053 339.63 150.239 339.558 150.409C339.486 150.578 339.367 150.723 339.215 150.826C339.061 150.93 338.881 150.99 338.695 150.999C338.509 151.007 338.324 150.963 338.162 150.872L333.989 148.525C333.84 148.441 333.671 148.398 333.5 148.398C333.329 148.398 333.16 148.441 333.011 148.525L328.838 150.872C328.676 150.963 328.491 151.007 328.305 150.999C328.119 150.991 327.939 150.931 327.785 150.826C327.633 150.723 327.514 150.578 327.442 150.409C327.37 150.239 327.349 150.053 327.381 149.872L328.356 144.445C328.387 144.273 328.369 144.095 328.305 143.933C328.24 143.769 328.131 143.626 327.99 143.521L324.379 140.779C324.232 140.668 324.12 140.517 324.057 140.343C323.994 140.17 323.983 139.982 324.025 139.802C324.069 139.622 324.164 139.458 324.298 139.329C324.432 139.201 324.601 139.114 324.783 139.078L329.423 138.139C329.571 138.109 329.709 138.047 329.829 137.956C329.947 137.866 330.043 137.75 330.109 137.616L332.616 132.543C332.699 132.38 332.825 132.243 332.981 132.147C333.137 132.051 333.317 132 333.5 132C333.683 132 333.863 132.051 334.019 132.147C334.175 132.243 334.301 132.38 334.384 132.543L336.89 137.615Z" fill="#F9DA4B"/>
<path fill-rule="evenodd" clip-rule="evenodd" d="M88.8899 231.615C88.9556 231.749 89.0514 231.865 89.1698 231.955C89.2896 232.046 89.4283 232.108 89.5756 232.138L94.217 233.077C94.3992 233.113 94.5675 233.2 94.7018 233.328C94.8361 233.456 94.9309 233.621 94.9748 233.801C95.017 233.981 95.006 234.169 94.9432 234.342C94.8803 234.516 94.7683 234.667 94.6209 234.778L91.0096 237.52C90.8687 237.625 90.7598 237.768 90.6949 237.932C90.6305 238.094 90.613 238.272 90.6443 238.444L91.6187 243.872C91.6507 244.053 91.6297 244.239 91.558 244.409C91.4864 244.578 91.3673 244.723 91.2151 244.826C91.0611 244.93 90.881 244.99 90.6949 244.999C90.5088 245.007 90.3241 244.963 90.1615 244.872L85.9893 242.525C85.8398 242.441 85.6713 242.398 85.5 242.398C85.3287 242.398 85.1603 242.441 85.0108 242.525L80.8382 244.872C80.6758 244.963 80.4911 245.007 80.305 244.999C80.1189 244.991 79.9388 244.931 79.785 244.826C79.6328 244.723 79.5136 244.578 79.442 244.409C79.3703 244.239 79.3493 244.053 79.3813 243.872L80.3557 238.445C80.387 238.273 80.3695 238.095 80.3051 237.933C80.2402 237.769 80.1313 237.626 79.9904 237.521L76.3791 234.779C76.2317 234.668 76.1197 234.517 76.0568 234.343C75.994 234.17 75.983 233.982 76.0252 233.802C76.0692 233.622 76.1639 233.458 76.2981 233.329C76.4324 233.201 76.6005 233.114 76.7827 233.078L81.4235 232.139C81.5707 232.109 81.7094 232.047 81.829 231.956C81.9473 231.866 82.0432 231.75 82.1092 231.616L84.6157 226.543C84.6986 226.38 84.8251 226.243 84.9812 226.147C85.1373 226.051 85.3169 226 85.5 226C85.6831 226 85.8627 226.051 86.0188 226.147C86.1749 226.243 86.3014 226.38 86.3843 226.543L88.8899 231.615Z" fill="#F9DA4B"/>
<path d="M218.63 247.222L381.721 156.437L323.473 92.7918L218.63 247.222Z" fill="url(#paint0_linear_1471_358)" fill-opacity="0.49"/>
<path d="M219.824 247.026L43.2512 186.504L34.8959 272.374L219.824 247.026Z" fill="url(#paint1_linear_1471_358)" fill-opacity="0.49"/>
<path d="M206.824 247.026L383.397 186.504L391.753 272.374L206.824 247.026Z" fill="url(#paint2_linear_1471_358)" fill-opacity="0.49"/>
<path d="M216.77 248.329L309.592 86.3873L226.851 61.9443L216.77 248.329Z" fill="url(#paint3_linear_1471_358)"/>
<path d="M215.922 245.541L101.418 98.1305L47.359 165.37L215.922 245.541Z" fill="url(#paint4_linear_1471_358)" fill-opacity="0.49"/>
<path d="M215.967 245.834L201.938 59.7043L119.734 85.8955L215.967 245.834Z" fill="url(#paint5_linear_1471_358)" fill-opacity="0.49"/>
<path fill-rule="evenodd" clip-rule="evenodd" d="M367.89 227.615C367.956 227.749 368.051 227.865 368.17 227.955C368.29 228.046 368.428 228.108 368.576 228.138L373.217 229.077C373.399 229.113 373.567 229.2 373.702 229.328C373.836 229.456 373.931 229.621 373.975 229.801C374.017 229.981 374.006 230.169 373.943 230.342C373.88 230.516 373.768 230.667 373.621 230.778L370.01 233.52C369.869 233.625 369.76 233.768 369.695 233.932C369.631 234.094 369.613 234.272 369.644 234.444L370.619 239.872C370.651 240.053 370.63 240.239 370.558 240.409C370.486 240.578 370.367 240.723 370.215 240.826C370.061 240.93 369.881 240.99 369.695 240.999C369.509 241.007 369.324 240.963 369.162 240.872L364.989 238.525C364.84 238.441 364.671 238.398 364.5 238.398C364.329 238.398 364.16 238.441 364.011 238.525L359.838 240.872C359.676 240.963 359.491 241.007 359.305 240.999C359.119 240.991 358.939 240.931 358.785 240.826C358.633 240.723 358.514 240.578 358.442 240.409C358.37 240.239 358.349 240.053 358.381 239.872L359.356 234.445C359.387 234.273 359.369 234.095 359.305 233.933C359.24 233.769 359.131 233.626 358.99 233.521L355.379 230.779C355.232 230.668 355.12 230.517 355.057 230.343C354.994 230.17 354.983 229.982 355.025 229.802C355.069 229.622 355.164 229.458 355.298 229.329C355.432 229.201 355.601 229.114 355.783 229.078L360.423 228.139C360.571 228.109 360.709 228.047 360.829 227.956C360.947 227.866 361.043 227.75 361.109 227.616L363.616 222.543C363.699 222.38 363.825 222.243 363.981 222.147C364.137 222.051 364.317 222 364.5 222C364.683 222 364.863 222.051 365.019 222.147C365.175 222.243 365.301 222.38 365.384 222.543L367.89 227.615Z" fill="#F9DA4B"/>
<g filter="url(#filter0_d_1471_358)">
<mask id="mask5_1471_358" style="mask-type:luminance" maskUnits="userSpaceOnUse" x="153" y="158" width="123" height="124">
<path d="M153.426 158.016H275.998V281.091H153.426V158.016Z" fill="white"/>
</mask>
<g mask="url(#mask5_1471_358)">
<path d="M214.866 158.766C213.736 158.766 212.617 158.788 211.487 158.867C202.758 159.355 194.547 161.657 187.155 165.426C183.096 167.453 179.33 169.954 175.854 172.841C171.697 176.292 167.98 180.279 164.875 184.709C162.206 188.449 159.991 192.515 158.253 196.825C155.313 203.962 153.725 211.768 153.725 219.945C153.725 253.735 181.057 281.128 214.866 281.128C223.029 281.128 230.838 279.517 237.953 276.596C242.259 274.869 246.314 272.639 250.05 269.97C254.487 266.861 258.493 263.163 261.94 259.003C264.805 255.534 267.324 251.738 269.351 247.679C273.605 239.352 276.004 229.932 276.004 219.945C276.004 186.147 248.63 158.766 214.866 158.766Z" fill="#FFBD00"/>
</g>
<mask id="mask6_1471_358" style="mask-type:luminance" maskUnits="userSpaceOnUse" x="148" y="158" width="123" height="124">
<path d="M148 158H270.693V281.046H148V158Z" fill="white"/>
</mask>
<g mask="url(#mask6_1471_358)">
<path d="M209.267 158C208.148 158 207.018 158.03 205.888 158.101C200.462 158.398 195.229 159.419 190.265 161.037C187.258 162.017 184.348 163.238 181.562 164.657C181.514 164.687 181.484 164.709 181.435 164.709C180.263 165.317 179.084 165.956 177.966 166.647C176.347 167.578 174.778 168.625 173.291 169.755C172.244 170.465 171.234 171.265 170.265 172.076C168.966 173.153 167.716 174.276 166.518 175.455C163.871 178.023 161.483 180.842 159.355 183.85C159.325 183.872 159.306 183.921 159.276 183.94C156.618 187.69 154.391 191.749 152.653 196.055C149.713 203.204 148.125 211.013 148.125 219.191C148.125 252.977 175.469 280.37 209.267 280.37C217.436 280.37 225.238 278.752 232.353 275.842C236.659 274.1 240.714 271.873 244.461 269.204C244.51 269.181 244.529 269.163 244.581 269.114C247.589 267.004 250.405 264.605 252.973 261.965C254.17 260.768 255.27 259.547 256.348 258.248C257.159 257.238 257.959 256.236 258.694 255.189C259.795 253.687 260.846 252.129 261.773 250.51C262.464 249.388 263.091 248.209 263.71 247.041C263.71 246.989 263.733 246.959 263.763 246.91C265.178 244.12 266.399 241.211 267.379 238.203C269.357 232.204 270.405 225.817 270.405 219.191C270.405 185.393 243.042 158 209.267 158Z" fill="#FFDE50"/>
</g>
<path d="M252.985 261.978C250.417 264.617 247.601 267.016 244.594 269.126L159.367 183.862C161.496 180.854 163.884 178.035 166.531 175.467L252.985 261.978Z" fill="#FFEA94"/>
<path d="M267.387 238.199C266.407 241.206 265.187 244.116 263.772 246.906C263.742 246.955 263.719 246.985 263.719 247.037L181.443 164.705C181.492 164.705 181.522 164.683 181.571 164.653C184.357 163.233 187.267 162.013 190.274 161.033L267.387 238.199Z" fill="#FFEA94"/>
<path d="M261.783 250.514C260.855 252.132 259.804 253.691 258.704 255.192L173.301 169.759C174.788 168.629 176.357 167.582 177.975 166.65L261.783 250.514Z" fill="#FFEA94"/>
<path d="M183.74 251.398C191.789 259.455 202.08 263.856 212.6 264.614C223.121 263.886 233.438 259.455 241.48 251.398L180.56 190.467C166.007 208.383 167.085 234.732 183.74 251.398Z" fill="#FAA300"/>
<path d="M177.095 251.389C186.827 261.154 199.881 265.566 212.601 264.605C202.081 263.846 191.79 259.446 183.741 251.389C167.086 234.723 166.008 208.374 180.561 190.457C181.571 189.26 182.618 188.081 183.741 186.962C191.76 178.901 202.081 174.475 212.601 173.746C199.862 172.785 186.827 177.193 177.065 186.962C159.261 204.743 159.284 233.604 177.095 251.389Z" fill="#F68E00"/>
<path d="M180.559 190.446L241.479 251.377C259.29 233.592 259.29 204.761 241.479 186.95C233.437 178.889 223.119 174.463 212.599 173.734C202.079 174.463 191.758 178.889 183.739 186.95C182.616 188.069 181.569 189.248 180.559 190.446Z" fill="#FFBD00"/>
<path d="M228.176 228.464C227.177 232.834 225.529 236.022 223.231 238.049C220.922 240.091 218.185 241.101 214.99 241.101C210.654 241.101 207.136 239.502 204.429 236.311C201.722 233.112 200.374 227.754 200.374 220.215C200.374 213.131 201.741 207.991 204.489 204.822C207.237 201.653 210.823 200.072 215.227 200.072C218.426 200.072 221.133 200.962 223.37 202.753C225.597 204.54 227.069 206.981 227.774 210.059L239.665 207.221C238.317 202.453 236.29 198.792 233.579 196.254C229.036 191.948 223.123 189.785 215.839 189.785C207.508 189.785 200.772 192.537 195.659 198.015C190.545 203.5 187.984 211.201 187.984 221.116C187.984 230.484 190.534 237.873 195.617 243.279C200.712 248.678 207.207 251.377 215.111 251.377C221.493 251.377 226.768 249.808 230.924 246.647C235.081 243.489 238.047 238.661 239.834 232.162L228.176 228.464Z" fill="#F68E00"/>
<path d="M226.342 227.446C225.332 231.805 223.684 235.004 221.386 237.035C219.081 239.063 216.332 240.084 213.145 240.084C208.808 240.084 205.294 238.484 202.587 235.286C199.876 232.087 198.529 226.725 198.529 219.198C198.529 212.102 199.899 206.973 202.644 203.804C205.392 200.635 208.97 199.047 213.385 199.047C216.58 199.047 219.287 199.937 221.525 201.724C223.762 203.515 225.234 205.952 225.933 209.042L237.831 206.192C236.471 201.424 234.444 197.775 231.737 195.229C227.19 190.919 221.277 188.768 213.993 188.768C205.662 188.768 198.93 191.508 193.813 196.997C188.699 202.475 186.143 210.183 186.143 220.087C186.143 229.466 188.688 236.855 193.775 242.25C198.87 247.66 205.362 250.36 213.265 250.36C219.648 250.36 224.923 248.779 229.079 245.622C233.235 242.472 236.201 237.643 237.992 231.144L226.342 227.446Z" fill="#FFEA94"/>
</g>
<defs>
<filter id="filter0_d_1471_358" x="144.125" y="158" width="135.873" height="131.092" filterUnits="userSpaceOnUse" color-interpolation-filters="sRGB">
<feFlood flood-opacity="0" result="BackgroundImageFix"/>
<feColorMatrix in="SourceAlpha" type="matrix" values="0 0 0 0 0 0 0 0 0 0 0 0 0 0 0 0 0 0 127 0" result="hardAlpha"/>
<feOffset dy="4"/>
<feGaussianBlur stdDeviation="2"/>
<feComposite in2="hardAlpha" operator="out"/>
<feColorMatrix type="matrix" values="0 0 0 0 0 0 0 0 0 0 0 0 0 0 0 0 0 0 0.25 0"/>
<feBlend mode="normal" in2="BackgroundImageFix" result="effect1_dropShadow_1471_358"/>
<feBlend mode="normal" in="SourceGraphic" in2="effect1_dropShadow_1471_358" result="shape"/>
</filter>
<linearGradient id="paint0_linear_1471_358" x1="218.63" y1="247.222" x2="370.056" y2="108.38" gradientUnits="userSpaceOnUse">
<stop stop-color="#F7D000"/>
<stop offset="1" stop-color="#D9D9D9" stop-opacity="0"/>
<stop offset="1" stop-color="#E3D68E" stop-opacity="0.347717"/>
</linearGradient>
<linearGradient id="paint1_linear_1471_358" x1="219.824" y1="247.026" x2="15.3273" y2="227.318" gradientUnits="userSpaceOnUse">
<stop stop-color="#F7D000"/>
<stop offset="1" stop-color="#D9D9D9" stop-opacity="0"/>
<stop offset="1" stop-color="#E3D68E" stop-opacity="0.347717"/>
</linearGradient>
<linearGradient id="paint2_linear_1471_358" x1="206.824" y1="247.026" x2="411.321" y2="227.318" gradientUnits="userSpaceOnUse">
<stop stop-color="#F7D000"/>
<stop offset="1" stop-color="#D9D9D9" stop-opacity="0"/>
<stop offset="1" stop-color="#E3D68E" stop-opacity="0.347717"/>
</linearGradient>
<linearGradient id="paint3_linear_1471_358" x1="216.77" y1="248.329" x2="274.794" y2="51.2491" gradientUnits="userSpaceOnUse">
<stop stop-color="#F7D000" stop-opacity="0.49"/>
<stop offset="1" stop-color="#D9D9D9" stop-opacity="0"/>
<stop offset="1" stop-color="#E3D68E" stop-opacity="0.347717"/>
</linearGradient>
<linearGradient id="paint4_linear_1471_358" x1="215.922" y1="245.541" x2="55.6907" y2="116.959" gradientUnits="userSpaceOnUse">
<stop stop-color="#F7D000"/>
<stop offset="1" stop-color="#D9D9D9" stop-opacity="0"/>
<stop offset="1" stop-color="#E3D68E" stop-opacity="0.347717"/>
</linearGradient>
<linearGradient id="paint5_linear_1471_358" x1="215.967" y1="245.834" x2="153.419" y2="50.1423" gradientUnits="userSpaceOnUse">
<stop stop-color="#F7D000"/>
<stop offset="1" stop-color="#D9D9D9" stop-opacity="0"/>
<stop offset="1" stop-color="#E3D68E" stop-opacity="0.347717"/>
</linearGradient>
</defs>
</svg>
