<svg xmlns="http://www.w3.org/2000/svg" width="17.134" height="22.174" viewBox="0 0 17.134 22.174">
  <path id="XMLID_1960_" d="M28.126,2H13.008A1.011,1.011,0,0,0,12,3.008V23.166a1.011,1.011,0,0,0,1.008,1.008H28.126a1.011,1.011,0,0,0,1.008-1.008V3.008A1.011,1.011,0,0,0,28.126,2ZM27.119,22.158h-13.1V4.016h13.1ZM16.158,17.875a1.011,1.011,0,0,1,1.008-1.008h6.8a1.008,1.008,0,1,1,0,2.016h-6.8A1.011,1.011,0,0,1,16.158,17.875Zm.151-4.788a1.011,1.011,0,0,1,1.008-1.008h6.627a1.008,1.008,0,1,1,0,2.016H17.317A1.011,1.011,0,0,1,16.309,13.087Zm0-4.788a1.011,1.011,0,0,1,1.008-1.008h6.627a1.008,1.008,0,1,1,0,2.016H17.317A1.011,1.011,0,0,1,16.309,8.3Z" transform="translate(-12 -2)"/>
</svg>
