<svg id="questionfile-o-svgrepo-com" xmlns="http://www.w3.org/2000/svg" width="22" height="22" viewBox="0 0 22 22">
  <path id="Path_50143" data-name="Path 50143" d="M0,0H22V22H0Z" fill="none" fill-rule="evenodd"/>
  <path id="Path_50144" data-name="Path 50144" d="M13.77,0a4.125,4.125,0,0,1,3.225,1.553L20.35,5.759a4.125,4.125,0,0,1,.9,2.572v9.544A4.125,4.125,0,0,1,17.125,22h-11A4.125,4.125,0,0,1,2,17.875V4.125A4.125,4.125,0,0,1,6.125,0Zm0,1.375H6.125A2.75,2.75,0,0,0,3.378,3.988l0,.137v13.75a2.75,2.75,0,0,0,2.613,2.747l.137,0h11a2.75,2.75,0,0,0,2.747-2.613l0-.137V8.331a2.75,2.75,0,0,0-.5-1.579l-.1-.136L15.92,2.41a2.75,2.75,0,0,0-1.994-1.031ZM11.625,14.781a.962.962,0,1,1-.962.962A.962.962,0,0,1,11.625,14.781Zm0-7.906a2.75,2.75,0,0,1,.688,5.413v.774a.688.688,0,0,1-1.375,0V11.688A.687.687,0,0,1,11.625,11,1.375,1.375,0,1,0,10.25,9.625a.688.688,0,0,1-1.375,0A2.75,2.75,0,0,1,11.625,6.875Z" transform="translate(-0.625)"/>
</svg>
