<svg id="页面-1" xmlns="http://www.w3.org/2000/svg" width="28" height="28" viewBox="0 0 28 28">
  <g id="Media">
    <g id="notification_line">
      <path id="MingCute" d="M28,0V28H0V0ZM14.692,27.134l-.014,0-.083.041-.022,0h0l-.018,0-.083-.041a.025.025,0,0,0-.028.006l0,.013-.02.5.006.024.013.014.121.086.017,0h0l.014,0,.121-.086.015-.019h0l0-.019-.02-.5a.025.025,0,0,0-.019-.021ZM15,27l-.016,0-.215.108-.012.012h0l0,.013.021.5.006.015h0l.01.008.234.108a.029.029,0,0,0,.033-.009l0-.016-.04-.717A.03.03,0,0,0,15,27Zm-.835,0a.027.027,0,0,0-.032.006l-.007.016-.04.717a.027.027,0,0,0,.02.027l.018,0,.234-.108.011-.009h0l0-.014.021-.5,0-.015h0l-.011-.01Z" fill="none"/>
      <path id="形状" d="M16.9,21.74a2.321,2.321,0,0,1-2.146,2.316l-.173.006H12.267a2.321,2.321,0,0,1-2.313-2.149l-.006-.173ZM13.426,2a8.122,8.122,0,0,1,8.112,7.849l0,.279V14.5l2.113,4.232a1.278,1.278,0,0,1-1.008,1.842l-.133.007H4.338a1.277,1.277,0,0,1-1.194-1.726L3.2,18.73,5.31,14.5V10.128A8.123,8.123,0,0,1,13.426,2Zm0,2.322A5.8,5.8,0,0,0,7.634,9.876l-.005.252V14.5a2.326,2.326,0,0,1-.158.841l-.087.2L6.026,18.257h14.8l-1.358-2.719a2.329,2.329,0,0,1-.235-.823l-.01-.216V10.128A5.8,5.8,0,0,0,13.426,4.322Z" transform="translate(0.574 0.375)" fill="#1a1a1a" fill-rule="evenodd"/>
    </g>
  </g>
</svg>
