<svg xmlns="http://www.w3.org/2000/svg" width="22" height="22" viewBox="0 0 22 22">
  <path id="question-circle-svgrepo-com" d="M12,23A11,11,0,1,1,23,12,11,11,0,0,1,12,23Zm0-2a9,9,0,1,0-9-9A9,9,0,0,0,12,21Zm0-4a1,1,0,1,1,1-1A1,1,0,0,1,12,17Zm1-3H11a3.033,3.033,0,0,1,2.053-3.144C13.875,10.445,14,10.3,14,9.5c0-.944-.723-1.5-2-1.5a2,2,0,0,0-2,2H8a4,4,0,0,1,4-4c2.284,0,4,1.321,4,3.5a3.033,3.033,0,0,1-2.053,3.144C13.125,13.055,13,13.2,13,14Z" transform="translate(-1 -1)" fill-rule="evenodd"/>
</svg>
