<svg xmlns="http://www.w3.org/2000/svg" width="33.397" height="33.481" viewBox="0 0 33.397 33.481">
  <g id="messages-1-svgrepo-com" transform="translate(-1.25 -1.25)">
    <path id="Path_49782" data-name="Path 49782" d="M27.511,13.647v6.386a9.683,9.683,0,0,1-.064,1.2c-.367,4.31-2.906,6.45-7.583,6.45h-.639a1.285,1.285,0,0,0-1.022.511l-1.916,2.554a1.807,1.807,0,0,1-3.065,0l-1.916-2.554a1.474,1.474,0,0,0-1.022-.511H9.647C4.554,27.68,2,26.419,2,20.033V13.647C2,8.969,4.155,6.431,8.45,6.064A9.682,9.682,0,0,1,9.647,6H19.864Q27.5,6,27.511,13.647Z" transform="translate(0 2.386)" fill="none" stroke="#979797" stroke-linecap="round" stroke-linejoin="round" stroke-width="1.5"/>
    <path id="Path_49783" data-name="Path 49783" d="M31.487,9.647v6.386q0,7.04-6.45,7.583a9.683,9.683,0,0,0,.064-1.2V16.033q0-7.639-7.647-7.647H7.237a9.682,9.682,0,0,0-1.2.064C6.407,4.155,8.946,2,13.623,2H23.84Q31.479,2,31.487,9.647Z" transform="translate(2.41 0)" fill="none" stroke="#979797" stroke-linecap="round" stroke-linejoin="round" stroke-width="1.5"/>
    <path id="Path_49784" data-name="Path 49784" d="M13.5,13.25h.014" transform="translate(6.856 6.71)" fill="none" stroke="#979797" stroke-linecap="round" stroke-linejoin="round" stroke-width="2"/>
    <path id="Path_49785" data-name="Path 49785" d="M10,13.25h.014" transform="translate(4.769 6.71)" fill="none" stroke="#979797" stroke-linecap="round" stroke-linejoin="round" stroke-width="2"/>
    <path id="Path_49786" data-name="Path 49786" d="M6.5,13.25H6.51" transform="translate(2.681 6.71)" fill="none" stroke="#979797" stroke-linecap="round" stroke-linejoin="round" stroke-width="2"/>
  </g>
</svg>
