<svg id="Group_58269" data-name="Group 58269" xmlns="http://www.w3.org/2000/svg" width="36" height="23" viewBox="0 0 36 23">
  <path id="Path_50140" data-name="Path 50140" d="M22.492,76.984V72.635H14.046l.006,4.2A16.976,16.976,0,0,0,1.77,92.334H0v3.3H36v-3.3H34.266A17.012,17.012,0,0,0,22.492,76.984Zm-6.172-2.44h3.9v1.939a15.269,15.269,0,0,0-3.9-.068S16.32,74.544,16.32,74.544Zm-1.256,4.5a13.246,13.246,0,0,1,5.909,0A14.57,14.57,0,0,1,32,92.283H4.037A14.57,14.57,0,0,1,15.064,79.043Z" transform="translate(0 -72.635)" fill="#fff"/>
  <path id="Path_50141" data-name="Path 50141" d="M201.665,152.626c-1.238-2.751-3.641-4.985-7.144-6.64a2.545,2.545,0,0,0-1.091-.251,2.65,2.65,0,0,0-2.51,2.06,2.183,2.183,0,0,0,1.263,2.511c2.693,1.272,4.28,2.7,5.147,4.626a2.157,2.157,0,0,0,1.983,1.345,2.676,2.676,0,0,0,2.173-1.23A2.5,2.5,0,0,0,201.665,152.626Zm-1.726,1.42a.827.827,0,0,1-.625.388c-.066,0-.187,0-.3-.257a11.532,11.532,0,0,0-6.041-5.538c-.231-.109-.3-.228-.251-.441a.806.806,0,0,1,.71-.62.713.713,0,0,1,.3.075c3.095,1.462,5.2,3.389,6.25,5.729A.65.65,0,0,1,199.938,154.046Z" transform="translate(-172.879 -138.412)" fill="#fff"/>
</svg>
