<svg xmlns="http://www.w3.org/2000/svg" width="28" height="29" viewBox="0 0 28 29">
  <path id="home-svgrepo-com_2_" data-name="home-svgrepo-com (2)" d="M16.391,4.45a1.44,1.44,0,0,0-.783,0,1.57,1.57,0,0,0-.478.275c-.289.213-.643.517-1.2.994L6.6,12.053a7.977,7.977,0,0,0-1.331,1.27,2.683,2.683,0,0,0-.376.813,7.638,7.638,0,0,0-.092,1.81v6.8c0,1.185,0,1.99.054,2.612a2.862,2.862,0,0,0,.261,1.131,2.761,2.761,0,0,0,1.194,1.16,3.09,3.09,0,0,0,1.164.253c.64.052,1.469.053,2.689.053H10.4v-4.08a5.6,5.6,0,0,1,11.2,0v4.08h.238c1.219,0,2.048,0,2.689-.053a3.091,3.091,0,0,0,1.164-.253,2.761,2.761,0,0,0,1.194-1.16,2.862,2.862,0,0,0,.261-1.131c.053-.622.054-1.427.054-2.612v-6.8a7.629,7.629,0,0,0-.092-1.81,2.682,2.682,0,0,0-.376-.813,7.978,7.978,0,0,0-1.331-1.27L18.065,5.719c-.552-.477-.906-.781-1.2-.994A1.57,1.57,0,0,0,16.391,4.45ZM14.825,1.839a4.13,4.13,0,0,1,3.734.718c.388.285.825.662,1.327,1.1L27.26,10.02l.118.1a9.349,9.349,0,0,1,1.685,1.7,5.366,5.366,0,0,1,.752,1.626A8.965,8.965,0,0,1,30,15.793V22.8c0,1.113,0,2.032-.064,2.78a5.431,5.431,0,0,1-.567,2.159,5.523,5.523,0,0,1-2.388,2.32,5.856,5.856,0,0,1-2.223.55c-.77.062-1.716.062-2.862.062h-.6c-.17,0-.372,0-.55-.014a2.156,2.156,0,0,1-.812-.215,2.071,2.071,0,0,1-.9-.87,2.007,2.007,0,0,1-.222-.789c-.015-.173-.015-.37-.015-.535V23.876a2.8,2.8,0,0,0-5.6,0v4.377c0,.165,0,.361-.015.535a2.005,2.005,0,0,1-.222.789,2.071,2.071,0,0,1-.9.87,2.156,2.156,0,0,1-.812.215c-.178.014-.381.014-.55.014h-.6c-1.146,0-2.092,0-2.862-.062a5.855,5.855,0,0,1-2.223-.55,5.522,5.522,0,0,1-2.388-2.32,5.432,5.432,0,0,1-.567-2.159C2,24.836,2,23.918,2,22.8V15.946c0-.052,0-.1,0-.153a8.966,8.966,0,0,1,.185-2.35,5.365,5.365,0,0,1,.752-1.626,9.346,9.346,0,0,1,1.685-1.7l.118-.1,7.374-6.367c.5-.434.94-.811,1.327-1.1A4.292,4.292,0,0,1,14.825,1.839Z" transform="translate(-2 -1.676)" fill="#3b3f43" fill-rule="evenodd"/>
</svg>
