<svg xmlns="http://www.w3.org/2000/svg" width="26.031" height="31.815" viewBox="0 0 26.031 31.815">
  <path id="profile-2-svgrepo-com" d="M16.015,15.462A7.231,7.231,0,1,0,8.785,8.231,7.231,7.231,0,0,0,16.015,15.462Zm0-11.569a4.338,4.338,0,1,1-4.338,4.338,4.338,4.338,0,0,1,4.338-4.338ZM4.446,32.815H27.585a1.446,1.446,0,0,0,1.446-1.446V25.585A7.239,7.239,0,0,0,21.8,18.354H10.231A7.239,7.239,0,0,0,3,25.585v5.785A1.446,1.446,0,0,0,4.446,32.815Zm1.446-7.231a4.338,4.338,0,0,1,4.338-4.338H21.8a4.338,4.338,0,0,1,4.338,4.338v4.338H5.892Z" transform="translate(-3 -1)" fill="#979797"/>
</svg>
