<svg id="Group" xmlns="http://www.w3.org/2000/svg" width="146.015" height="146.015" viewBox="0 0 146.015 146.015">
  <path id="Path_50268" data-name="Path 50268" d="M74.71,9.01a65.7,65.7,0,1,1-65.7,65.7A65.732,65.732,0,0,1,74.71,9.01Z" transform="translate(-1.702 -1.702)" fill="#fed7d7"/>
  <path id="Path_50269" data-name="Path 50269" d="M73.007,0A73.007,73.007,0,1,1,0,73.007,73.043,73.043,0,0,1,73.007,0Z" fill="#fed7d7"/>
  <path id="Path_50270" data-name="Path 50270" d="M77.457,23.55A53.907,53.907,0,1,1,23.55,77.457,53.933,53.933,0,0,1,77.457,23.55Z" transform="translate(-4.45 -4.45)" fill="#c53030"/>
  <path id="Path_50271" data-name="Path 50271" d="M75.754,14.54A61.215,61.215,0,1,1,14.54,75.754,61.245,61.245,0,0,1,75.754,14.54Z" transform="translate(-2.747 -2.747)" fill="#c53030"/>
  <path id="Path_50272" data-name="Path 50272" d="M64.178,105.744a29.5,29.5,0,1,1,18.963,6.905A29.456,29.456,0,0,1,64.178,105.744Z" transform="translate(-10.133 -10.134)" fill="none" stroke="#fff" stroke-linecap="round" stroke-width="8.82"/>
  <path id="Path_50273" data-name="Path 50273" d="M70.848,106.112,106.6,64.14" transform="translate(-13.386 -12.119)" fill="none" stroke="#fff" stroke-linecap="round" stroke-width="7.667"/>
</svg>
