<svg xmlns="http://www.w3.org/2000/svg" width="25.039" height="37.466" viewBox="0 0 25.039 37.466">
  <g id="Group_58342" data-name="Group 58342" transform="translate(-96 -282.534)">
    <g id="Bookmark" transform="translate(96 282.534)">
      <path id="Path_49827" data-name="Path 49827" d="M5,1V38.466l12.519-9.285,12.519,9.285V1Z" transform="translate(-5 -1)" fill="#59a3c4"/>
    </g>
    <g id="star-svgrepo-com_1_" data-name="star-svgrepo-com (1)" transform="translate(99.999 287.765)">
      <path id="Path_50219" data-name="Path 50219" d="M13.1,5.073,15.01,9.405a1,1,0,0,0,.827.591l4.657.415a.636.636,0,0,1,.355,1.088L17.34,14.428a.989.989,0,0,0-.335.969l1.02,4.743a.641.641,0,0,1-.932.672l-4.065-2.365a1,1,0,0,0-1.011,0L7.953,20.811a.641.641,0,0,1-.932-.672L8.041,15.4a.992.992,0,0,0-.335-.969L4.2,11.5a.637.637,0,0,1,.355-1.088L9.208,10a1,1,0,0,0,.827-.591l1.912-4.332A.645.645,0,0,1,13.1,5.073Z" transform="translate(-4.002 -4.719)" fill="#d4d2d2"/>
      <path id="Path_50220" data-name="Path 50220" d="M65.062,17.446l-.325-3.228c-.013-.18-.05-.488.238-.488.228,0,.352.475.352.475L66.3,16.8c.368.986.217,1.324-.138,1.524C65.757,18.549,65.155,18.371,65.062,17.446Z" transform="translate(-56.108 -12.444)" fill="#fff"/>
      <path id="Path_50221" data-name="Path 50221" d="M87.4,54.973l2.8-2.185c.138-.116.388-.3.188-.509-.158-.166-.587.073-.587.073l-2.45.958c-.731.253-1.216.626-1.259,1.1C86.042,55.034,86.605,55.518,87.4,54.973Z" transform="translate(-74.46 -45.534)" fill="#979797"/>
    </g>
  </g>
</svg>
