<svg xmlns="http://www.w3.org/2000/svg" width="32.802" height="32.802" viewBox="0 0 32.802 32.802">
  <g id="Group_58343" data-name="Group 58343" transform="translate(-306 -282.534)">
    <path id="Path_29926" data-name="Path 29926" d="M16.4,0A16.4,16.4,0,1,1,0,16.4,16.4,16.4,0,0,1,16.4,0Z" transform="translate(306 282.534)" fill="#efc75e"/>
    <path id="Path_29927" data-name="Path 29927" d="M39.321,27.353A11.968,11.968,0,1,0,51.289,39.321,11.968,11.968,0,0,0,39.321,27.353Zm0,22.1A10.127,10.127,0,1,1,49.448,39.321,10.127,10.127,0,0,1,39.321,49.448Zm1.224-10.9C40,38.321,37.972,38,37.972,37.117c0-.653.757-.842,1.211-.842a1.772,1.772,0,0,1,1.17.391.983.983,0,0,1,.288.435c.069.189.11.391.372.391h1.349c.317,0,.4-.058.4-.406a2.779,2.779,0,0,0-2.505-2.625V33.3c0-.26-.083-.421-.4-.421H38.782c-.317,0-.4.159-.4.421v1.116a2.867,2.867,0,0,0-2.628,2.8c0,1.841,1.281,2.421,2.67,2.884,1.17.392,2.4.406,2.4,1.218s-.6.986-1.349.986a1.758,1.758,0,0,1-1.35-.479,1.016,1.016,0,0,1-.261-.595c-.028-.363-.179-.406-.5-.406H36.029c-.317,0-.4.074-.4.406a3.164,3.164,0,0,0,2.753,2.973v1.131c0,.261.083.421.4.421h1.074c.317,0,.4-.16.4-.421v-1.1a2.883,2.883,0,0,0,2.739-2.973C43,39.292,41.537,38.871,40.546,38.552Z" transform="translate(283.08 259.613)" fill="#c93"/>
  </g>
</svg>
