<svg xmlns="http://www.w3.org/2000/svg" width="40" height="40" viewBox="0 0 40 40">
  <path id="groups-svgrepo-com" d="M35.055,29.478a6.364,6.364,0,1,0-9.927,0A10.982,10.982,0,0,0,21,33.164a10.982,10.982,0,0,0-4.127-3.685A6.351,6.351,0,1,0,5.545,25.545a6.3,6.3,0,0,0,1.4,3.933A10.909,10.909,0,0,0,1,39.182,1.818,1.818,0,0,0,2.818,41H39.182A1.818,1.818,0,0,0,41,39.182,10.909,10.909,0,0,0,35.055,29.478Zm-23.145-6.66a2.727,2.727,0,1,1-2.727,2.727,2.727,2.727,0,0,1,2.727-2.727ZM4.865,37.364a7.273,7.273,0,0,1,14.087,0ZM30.091,22.818a2.727,2.727,0,1,1-2.727,2.727A2.727,2.727,0,0,1,30.091,22.818ZM23.049,37.364a7.273,7.273,0,0,1,14.084,0ZM12.273,14.455a1.818,1.818,0,0,0,2.909,2.182,7.273,7.273,0,0,1,11.636,0,1.818,1.818,0,1,0,2.909-2.182,10.909,10.909,0,0,0-3.755-3.167,6.3,6.3,0,0,0,1.391-3.924,6.364,6.364,0,1,0-12.727,0,6.3,6.3,0,0,0,1.391,3.922A10.9,10.9,0,0,0,12.273,14.455ZM21,4.636a2.727,2.727,0,1,1-2.727,2.727A2.727,2.727,0,0,1,21,4.636Z" transform="translate(-1 -1)"/>
</svg>
