<svg id="_-Product-Icons" data-name="ðŸ”-Product-Icons" xmlns="http://www.w3.org/2000/svg" width="18.032" height="17.13" viewBox="0 0 18.032 17.13">
  <g id="ic_fluent_comment_24_regular" transform="translate(0 0)">
    <path id="_-Color" data-name="ðŸŽ¨-Color" d="M4.93,16.524A2.93,2.93,0,0,1,2,13.594V5.93A2.93,2.93,0,0,1,4.93,3H17.1a2.93,2.93,0,0,1,2.93,2.93v7.664a2.93,2.93,0,0,1-2.93,2.93H11.929l-4.52,3.382a1.127,1.127,0,0,1-1.8-.9V16.524Zm6.549-1.352H17.1a1.578,1.578,0,0,0,1.578-1.578V5.93A1.578,1.578,0,0,0,17.1,4.352H4.93A1.578,1.578,0,0,0,3.352,5.93v7.664A1.578,1.578,0,0,0,4.93,15.172H6.958v3.382Z" transform="translate(-2 -3)" fill="#6b6b6b"/>
  </g>
</svg>
