<svg xmlns="http://www.w3.org/2000/svg" width="29" height="29" viewBox="0 0 29 29">
  <path id="facebook-svgrepo-com" d="M30,15.685a14.5,14.5,0,1,0-16.85,14.4l.083.012V19.9H9.555V15.685h3.682V12.472a4.952,4.952,0,0,1-.028-.542,5.134,5.134,0,0,1,5.118-5.15c.136,0,.272.006.406.016h-.017a22.23,22.23,0,0,1,3.376.3l-.13-.018v3.59H20.133a2.025,2.025,0,0,0-.276-.018,2.1,2.1,0,0,0-2.1,2.109c0,.066,0,.131.009.2v2.727H21.79L21.147,19.9H17.769V30.1A14.589,14.589,0,0,0,30,15.685h0Z" transform="translate(-1.004 -1.097)" fill="#3b3f43"/>
</svg>
