<svg id="like-svgrepo-com" xmlns="http://www.w3.org/2000/svg" width="20" height="18" viewBox="0 0 20 18">
  <path id="Path_49828" data-name="Path 49828" d="M17.231,5A5.587,5.587,0,0,0,13,6.969,5.587,5.587,0,0,0,8.769,5,5.951,5.951,0,0,0,3,11.136C3,18.534,13,23,13,23s10-4.466,10-11.864A5.951,5.951,0,0,0,17.231,5ZM13,21.2C10.983,20.154,4.538,16.4,4.538,11.136a4.376,4.376,0,0,1,4.231-4.5,4.063,4.063,0,0,1,3.1,1.442l.565.652h1.131l.565-.652a4.063,4.063,0,0,1,3.1-1.442,4.376,4.376,0,0,1,4.231,4.5C21.462,16.4,15.017,20.154,13,21.2Z" transform="translate(-3 -5)"/>
</svg>
