<svg xmlns="http://www.w3.org/2000/svg" width="23.5" height="23.5" viewBox="0 0 23.5 23.5">
  <g id="messages-1-svgrepo-com" transform="translate(-1.25 -0.25)">
    <path id="Path_49782" data-name="Path 49782" d="M19.268,11.176V15.5a6.554,6.554,0,0,1-.043.81c-.249,2.918-1.967,4.366-5.133,4.366h-.432a.87.87,0,0,0-.692.346l-1.3,1.729a1.223,1.223,0,0,1-2.075,0L8.3,21.02a1,1,0,0,0-.692-.346H7.176C3.729,20.674,2,19.821,2,15.5V11.176C2,8.01,3.459,6.292,6.366,6.043A6.553,6.553,0,0,1,7.176,6h6.916Q19.262,6,19.268,11.176Z" transform="translate(0 -0.324)" fill="none" stroke="#fff" stroke-linecap="round" stroke-linejoin="round" stroke-width="1.5"/>
    <path id="Path_49783" data-name="Path 49783" d="M23.264,7.176V11.5q0,4.765-4.366,5.133a6.554,6.554,0,0,0,.043-.81V11.5q0-5.171-5.176-5.176H6.85a6.553,6.553,0,0,0-.81.043C6.289,3.459,8.007,2,11.173,2h6.916Q23.259,2,23.264,7.176Z" transform="translate(0.736 -1)" fill="none" stroke="#fff" stroke-linecap="round" stroke-linejoin="round" stroke-width="1.5"/>
    <path id="Path_49784" data-name="Path 49784" d="M13.5,13.25h.01" transform="translate(0.587 0.543)" fill="none" stroke="#fff" stroke-linecap="round" stroke-linejoin="round" stroke-width="2"/>
    <path id="Path_49785" data-name="Path 49785" d="M10,13.25h.01" transform="translate(0.408 0.543)" fill="none" stroke="#fff" stroke-linecap="round" stroke-linejoin="round" stroke-width="2"/>
    <path id="Path_49786" data-name="Path 49786" d="M6.5,13.25h.01" transform="translate(0.229 0.543)" fill="none" stroke="#fff" stroke-linecap="round" stroke-linejoin="round" stroke-width="2"/>
  </g>
</svg>
