<svg xmlns="http://www.w3.org/2000/svg" width="29" height="29" viewBox="0 0 29 29">
  <path id="pinterest-svgrepo-com" d="M-256.494,273A14.5,14.5,0,0,0-271,287.494a14.489,14.489,0,0,0,8.681,13.271,12.5,12.5,0,0,1,.249-3.329c.283-1.178,1.87-7.893,1.87-7.893a5.558,5.558,0,0,1-.465-2.287c0-2.152,1.246-3.748,2.8-3.748a1.944,1.944,0,0,1,1.96,2.174c0,1.325-.85,3.306-1.281,5.141a2.238,2.238,0,0,0,2.289,2.786c2.754,0,4.6-3.522,4.6-7.7,0-3.171-2.142-5.549-6.04-5.549a6.863,6.863,0,0,0-7.14,6.941,4.2,4.2,0,0,0,.952,2.842.683.683,0,0,1,.2.8c-.068.26-.227.906-.295,1.166a.5.5,0,0,1-.725.362c-2.029-.827-2.969-3.046-2.969-5.537,0-4.122,3.479-9.059,10.369-9.059,5.542,0,9.179,4.009,9.179,8.3,0,5.684-3.162,9.931-7.831,9.931a4.2,4.2,0,0,1-3.547-1.8s-.839,3.34-1.02,3.986a11.875,11.875,0,0,1-1.462,3.1,14.511,14.511,0,0,0,4.114.6A14.5,14.5,0,0,0-242,287.506,14.484,14.484,0,0,0-256.494,273Z" transform="translate(271 -273)" fill="#3b3f43"/>
</svg>
