<svg xmlns="http://www.w3.org/2000/svg" width="19" height="19" viewBox="0 0 19 19">
  <path id="question-circle-svgrepo-com" d="M10.5,20A9.5,9.5,0,1,1,20,10.5,9.5,9.5,0,0,1,10.5,20Zm0-1.727A7.773,7.773,0,1,0,2.727,10.5,7.773,7.773,0,0,0,10.5,18.273Zm0-3.456a.864.864,0,1,1,.864-.864A.864.864,0,0,1,10.5,14.817Zm.863-2.589H9.636a2.62,2.62,0,0,1,1.773-2.716c.71-.355.818-.481.818-1.171,0-.815-.624-1.3-1.727-1.3A1.727,1.727,0,0,0,8.773,8.773H7.045A3.455,3.455,0,0,1,10.5,5.318c1.973,0,3.455,1.141,3.455,3.023a2.62,2.62,0,0,1-1.773,2.716C11.472,11.411,11.364,11.538,11.364,12.227Z" transform="translate(-1 -1)" fill="#54595f" fill-rule="evenodd"/>
</svg>
