<svg xmlns="http://www.w3.org/2000/svg" width="29" height="24" viewBox="0 0 29 24">
  <path id="twitter-svgrepo-com" d="M-242,299.433a11.776,11.776,0,0,1-3.416.956,6.009,6.009,0,0,0,2.613-3.351,12,12,0,0,1-3.778,1.474,5.909,5.909,0,0,0-4.343-1.912,6.012,6.012,0,0,0-5.949,6.058,5.631,5.631,0,0,0,.158,1.382,16.76,16.76,0,0,1-12.26-6.334,6.159,6.159,0,0,0-.8,3.052,6.11,6.11,0,0,0,2.647,5.044,5.942,5.942,0,0,1-2.692-.76v.069a6.03,6.03,0,0,0,4.773,5.942,5.9,5.9,0,0,1-1.572.219,5.966,5.966,0,0,1-1.12-.1,5.96,5.96,0,0,0,5.554,4.2,11.807,11.807,0,0,1-7.386,2.591,11.794,11.794,0,0,1-1.425-.081,16.636,16.636,0,0,0,9.116,2.718c10.949,0,16.932-9.236,16.932-17.24,0-.265,0-.53-.011-.783A12.145,12.145,0,0,0-242,299.433" transform="translate(271 -296.6)" fill="#3b3f43"/>
</svg>
