<svg xmlns="http://www.w3.org/2000/svg" width="29" height="29" viewBox="0 0 29 29">
  <path id="website-ui-web-svgrepo-com" d="M14.5,0A14.5,14.5,0,1,0,29,14.5,14.5,14.5,0,0,0,14.5,0Zm9.191,8.27H21.048a19.466,19.466,0,0,0-1.166-3.484A11.225,11.225,0,0,1,23.691,8.27ZM25.6,14.5a11.167,11.167,0,0,1-.363,2.832H21.611c.091-.916.139-1.863.139-2.832s-.048-1.916-.139-2.832h3.627A11.167,11.167,0,0,1,25.6,14.5ZM14.5,25.6c-.295,0-1.192-.579-2.087-2.368a14.435,14.435,0,0,1-.949-2.5h6.071a14.432,14.432,0,0,1-.949,2.5C15.692,25.023,14.795,25.6,14.5,25.6Zm-3.692-8.27a25.249,25.249,0,0,1,0-5.664h7.384a25.141,25.141,0,0,1,.159,2.832,25.141,25.141,0,0,1-.159,2.832ZM3.4,14.5a11.167,11.167,0,0,1,.363-2.832H7.389c-.091.916-.139,1.863-.139,2.832s.048,1.916.139,2.832H3.762A11.167,11.167,0,0,1,3.4,14.5ZM14.5,3.4c.295,0,1.192.579,2.087,2.368a14.435,14.435,0,0,1,.949,2.5H11.464a14.432,14.432,0,0,1,.949-2.5C13.308,3.977,14.205,3.4,14.5,3.4ZM9.118,4.785A19.461,19.461,0,0,0,7.952,8.27H5.309A11.225,11.225,0,0,1,9.118,4.785ZM5.309,20.73H7.952a19.467,19.467,0,0,0,1.166,3.484A11.225,11.225,0,0,1,5.309,20.73Zm14.573,3.484a19.461,19.461,0,0,0,1.166-3.484h2.643a11.225,11.225,0,0,1-3.809,3.484Z" fill="#3b3f43"/>
</svg>
