<svg xmlns="http://www.w3.org/2000/svg" width="15.258" height="15.258" viewBox="0 0 15.258 15.258">
  <path id="time-svgrepo-com" d="M159.8,157.9l1.958,1.131a.405.405,0,0,1,.145.548.4.4,0,0,1-.547.148l-1.992-1.15a1.2,1.2,0,1,1-1.14-2.088v-3.68a.4.4,0,1,1,.8,0v3.68a1.205,1.205,0,0,1,.8,1.136A1.244,1.244,0,0,1,159.8,157.9Zm-1.173,7.354A7.629,7.629,0,1,0,151,157.629,7.629,7.629,0,0,0,158.629,165.258Zm0-.8a6.826,6.826,0,1,0-6.826-6.826A6.826,6.826,0,0,0,158.629,164.455Z" transform="translate(-151 -150)" fill="#979797" fill-rule="evenodd"/>
</svg>
